<svg width="28" height="29" viewBox="0 0 28 29" fill="none" xmlns="http://www.w3.org/2000/svg">
<path d="M8.66564 29.0002C10.2052 29.0002 11.4533 27.7521 11.4533 26.2125C11.4533 24.6729 10.2052 23.4248 8.66564 23.4248C7.12603 23.4248 5.87793 24.6729 5.87793 26.2125C5.87793 27.7521 7.12603 29.0002 8.66564 29.0002Z" fill="#3084C2" fill-opacity="0.9"/>
<path d="M22.6051 29.0002C24.1447 29.0002 25.3928 27.7521 25.3928 26.2125C25.3928 24.6729 24.1447 23.4248 22.6051 23.4248C21.0655 23.4248 19.8174 24.6729 19.8174 26.2125C19.8174 27.7521 21.0655 29.0002 22.6051 29.0002Z" fill="#3084C2" fill-opacity="0.9"/>
<path d="M22.6049 22.0306C22.9897 22.0306 23.3018 21.7185 23.3018 21.3336C23.3018 20.9488 22.9897 20.6367 22.6049 20.6367V22.0306ZM7.27246 22.0306H22.6049V20.6367H7.27246V22.0306Z" fill="#3084C2" fill-opacity="0.9"/>
<path d="M1 1.81982H5.18156" stroke="#3084C2" stroke-opacity="0.9" stroke-linecap="round"/>
<path d="M5.0376 1.07373L7.92879 21.8252" stroke="#3084C2" stroke-opacity="0.9"/>
<path d="M5.87793 5.30469H25.9243C26.9604 5.30469 27.6343 6.39511 27.171 7.32189L22.9894 15.685C22.7533 16.1572 22.2706 16.4555 21.7428 16.4555H7.27178L5.87793 5.30469Z" fill="#3084C2" fill-opacity="0.9"/>
</svg>
