<svg width="67" height="67" viewBox="0 0 67 67" fill="none" xmlns="http://www.w3.org/2000/svg">
<circle cx="33.5" cy="33.5" r="33.5" fill="#3084C2"/>
<path d="M54.414 22.934H48.239V17.896C48.239 14.652 45.683 12 42.441 12H26.545C23.302 12 20.649 14.654 20.649 17.896V22.934H14.519C13.105 22.934 11.929 24.083 11.929 25.497V31.062C11.929 32.476 13.105 33.656 14.519 33.656H15.282L16.556 40.639C16.915 40.595 17.281 40.563 17.652 40.563C22.603 40.563 26.632 44.592 26.632 49.543C26.632 50.071 26.584 50.595 26.497 51.095H48.389C49.625 51.095 50.686 50.223 50.908 49.007L53.706 33.655H54.416C55.829 33.655 56.961 32.474 56.961 31.061V25.496C56.959 24.084 55.827 22.934 54.414 22.934ZM25.439 17.896C25.439 17.277 25.926 16.788 26.545 16.788H42.441C43.058 16.788 43.521 17.277 43.521 17.896V22.934H25.439V17.896ZM28.941 41.939C28.941 42.923 28.174 43.72 27.191 43.72C26.207 43.72 25.439 42.923 25.439 41.939V32.163C25.439 31.179 26.207 30.382 27.191 30.382C28.174 30.382 28.941 31.179 28.941 32.163V41.939ZM36.303 41.939C36.303 42.923 35.5 43.72 34.517 43.72C33.534 43.72 32.729 42.923 32.729 41.939V32.163C32.729 31.179 33.534 30.382 34.517 30.382C35.5 30.382 36.303 31.179 36.303 32.163V41.939ZM43.594 41.939C43.594 42.923 42.79 43.72 41.807 43.72C40.825 43.72 40.02 42.923 40.02 41.939V32.163C40.02 31.179 40.825 30.382 41.807 30.382C42.79 30.382 43.594 31.179 43.594 32.163V41.939Z" fill="white"/>
<path d="M17.652 41.8828C13.424 41.8828 10 45.3078 10 49.5348C10 53.7628 13.425 57.1878 17.652 57.1878C21.878 57.1878 25.303 53.7618 25.303 49.5348C25.303 45.3078 21.877 41.8828 17.652 41.8828ZM22.007 49.4198C22.007 49.9508 21.576 50.3818 21.045 50.3818H18.577V52.8508C18.577 53.3818 18.146 53.8128 17.615 53.8128H17.61C17.079 53.8128 16.648 53.3818 16.648 52.8508V50.3818H14.178C13.647 50.3818 13.216 49.9508 13.216 49.4198V49.4138C13.216 48.8828 13.647 48.4508 14.178 48.4508H16.648V46.0538C16.648 45.5228 17.079 45.0918 17.61 45.0918H17.616C18.147 45.0918 18.578 45.5228 18.578 46.0538V48.4498H21.046C21.577 48.4498 22.008 48.8818 22.008 49.4128L22.007 49.4198Z" fill="white"/>
</svg>
