<svg width="23" height="28" viewBox="0 0 23 28" fill="none" xmlns="http://www.w3.org/2000/svg">
<g clip-path="url(#clip0)">
<path fill-rule="evenodd" clip-rule="evenodd" d="M9.22312 22.1639V15.1639C9.22125 14.5492 9.4627 13.9587 9.89477 13.5213C10.3268 13.084 10.9144 12.8354 11.5291 12.8299H17.2931C17.2553 12.2575 17.0779 11.7031 16.7765 11.2151C16.4751 10.727 16.0589 10.3201 15.5641 10.0299L9.22312 5.8299H4.6111L1.50011 7.69993C1.04041 8.03595 0.665449 8.47458 0.40505 8.98097C0.144651 9.48736 0.00599322 10.0475 0.000112327 10.6169V26.8339C-0.00936789 26.9884 0.0138607 27.1431 0.0682733 27.288C0.122686 27.4329 0.207054 27.5647 0.315878 27.6748C0.424701 27.7848 0.555519 27.8706 0.699789 27.9267C0.844059 27.9827 0.998537 28.0077 1.15311 27.9999H16.1401C16.2947 28.0077 16.4492 27.9827 16.5934 27.9267C16.7377 27.8706 16.8685 27.7848 16.9773 27.6748C17.0862 27.5647 17.1705 27.4329 17.225 27.288C17.2794 27.1431 17.3026 26.9884 17.2931 26.8339V24.4999H11.5291C10.914 24.4946 10.3259 24.2459 9.89376 23.8081C9.46158 23.3703 9.22045 22.7791 9.22312 22.1639ZM6.91712 18.6639C6.92675 18.8185 6.90363 18.9733 6.84928 19.1183C6.79493 19.2633 6.71058 19.3953 6.60174 19.5054C6.4929 19.6156 6.36203 19.7015 6.21769 19.7576C6.07334 19.8137 5.91879 19.8387 5.76412 19.8309H4.6111C4.45652 19.8385 4.30208 19.8134 4.15786 19.7573C4.01364 19.7011 3.88289 19.6152 3.77416 19.505C3.66543 19.3949 3.58116 19.263 3.52688 19.1181C3.47259 18.9731 3.4495 18.8184 3.45911 18.6639V11.6639C3.4495 11.5094 3.47259 11.3547 3.52688 11.2098C3.58116 11.0648 3.66543 10.933 3.77416 10.8228C3.88289 10.7127 4.01364 10.6267 4.15786 10.5706C4.30208 10.5144 4.45652 10.4893 4.6111 10.4969H5.76412C5.91879 10.4892 6.07334 10.5141 6.21769 10.5702C6.36203 10.6263 6.4929 10.7123 6.60174 10.8224C6.71058 10.9326 6.79493 11.0645 6.84928 11.2095C6.90363 11.3545 6.92675 11.5094 6.91712 11.6639V18.6639ZM11.5291 13.9999C11.3745 13.9922 11.2199 14.0171 11.0755 14.0732C10.9312 14.1293 10.8003 14.2153 10.6915 14.3254C10.5826 14.4356 10.4983 14.5675 10.4439 14.7125C10.3896 14.8575 10.3665 15.0124 10.3761 15.1669V22.1669C10.3663 22.3216 10.3893 22.4765 10.4436 22.6217C10.4979 22.7668 10.5822 22.8988 10.6911 23.0091C10.7999 23.1193 10.9309 23.2054 11.0753 23.2615C11.2197 23.3177 11.3744 23.3427 11.5291 23.3349H17.2931V13.9999H11.5291ZM8.07012 -8.20316e-05H5.76412C5.60946 -0.00784296 5.45488 0.0171281 5.31054 0.0732212C5.16619 0.129314 5.03533 0.215258 4.92649 0.325418C4.81765 0.435579 4.73329 0.567494 4.67895 0.712503C4.6246 0.857513 4.60148 1.01235 4.6111 1.16691V4.66691H9.22312V1.16691C9.23275 1.01235 9.20963 0.857513 9.15528 0.712503C9.10093 0.567494 9.01657 0.435579 8.90774 0.325418C8.7989 0.215258 8.66803 0.129314 8.52369 0.0732212C8.37934 0.0171281 8.22478 -0.00784296 8.07012 -8.20316e-05ZM17.0621 4.43293C16.2355 4.06329 15.5775 3.39709 15.2181 2.56593C15.1905 2.51336 15.149 2.46934 15.0981 2.43864C15.0473 2.40794 14.989 2.39173 14.9296 2.39173C14.8702 2.39173 14.8119 2.40794 14.7611 2.43864C14.7103 2.46934 14.6688 2.51336 14.6411 2.56593C14.2818 3.39709 13.6238 4.06329 12.7971 4.43293C12.7448 4.46163 12.7011 4.50387 12.6707 4.55525C12.6402 4.60662 12.6242 4.66522 12.6242 4.72492C12.6242 4.78463 12.6402 4.84323 12.6707 4.8946C12.7011 4.94597 12.7448 4.98822 12.7971 5.01692C13.6233 5.38672 14.2811 6.0524 14.6411 6.88291C14.6685 6.93576 14.7099 6.98007 14.7608 7.011C14.8117 7.04192 14.8701 7.05827 14.9296 7.05827C14.9892 7.05827 15.0475 7.04192 15.0984 7.011C15.1493 6.98007 15.1907 6.93576 15.2181 6.88291C15.5781 6.0524 16.2359 5.38672 17.0621 5.01692C17.115 4.98838 17.1591 4.94609 17.1899 4.89451C17.2206 4.84293 17.2369 4.78398 17.2369 4.72392C17.2369 4.66386 17.2206 4.6049 17.1899 4.55332C17.1591 4.50174 17.115 4.45946 17.0621 4.43092V4.43293ZM22.8271 7.93293C22.0007 7.56317 21.3425 6.89749 20.9821 6.0669C20.9546 6.01431 20.9132 5.97027 20.8625 5.93952C20.8117 5.90878 20.7535 5.89253 20.6941 5.89253C20.6348 5.89253 20.5765 5.90878 20.5258 5.93952C20.475 5.97027 20.4336 6.01431 20.4061 6.0669C20.0457 6.89749 19.3876 7.56317 18.5611 7.93293C18.5088 7.96163 18.4651 8.00387 18.4347 8.05525C18.4042 8.10662 18.3882 8.16522 18.3882 8.22492C18.3882 8.28463 18.4042 8.34323 18.4347 8.3946C18.4651 8.44597 18.5088 8.48822 18.5611 8.51692C19.3878 8.88636 20.0461 9.55211 20.4061 10.3829C20.4334 10.4358 20.4747 10.4802 20.5255 10.5111C20.5763 10.5421 20.6346 10.5585 20.6941 10.5585C20.7536 10.5585 20.812 10.5421 20.8628 10.5111C20.9136 10.4802 20.9548 10.4358 20.9821 10.3829C21.3422 9.55211 22.0004 8.88636 22.8271 8.51692C22.88 8.48838 22.9241 8.44609 22.9549 8.39451C22.9856 8.34293 23.0019 8.28398 23.0019 8.22392C23.0019 8.16386 22.9856 8.1049 22.9549 8.05332C22.9241 8.00174 22.88 7.95946 22.8271 7.93092V7.93293Z" fill="#3084C2"/>
</g>
<defs>
<clipPath id="clip0">
<rect width="23" height="28" fill="white"/>
</clipPath>
</defs>
</svg>
