<svg width="30" height="24" viewBox="0 0 30 24" fill="none" xmlns="http://www.w3.org/2000/svg">
<path d="M12.2294 6.5245C11.116 6.2024 10.139 5.73393 9.28528 5.10986C8.03162 7.97099 6.77817 10.8321 5.52466 13.6932C7.20861 15.4013 9.66657 15.4979 12.4622 15.6078C14.2404 15.6776 16.0792 15.7498 17.8383 16.2587C18.9517 16.5808 19.9286 17.0489 20.7824 17.6729L24.543 9.09006C22.859 7.38197 20.4012 7.28541 17.6057 7.17547C15.8273 7.10567 13.9885 7.0334 12.2294 6.5245Z" fill="#3084C2"/>
<path d="M29.9732 8.71328C29.7153 8.41662 29.4324 8.27244 29.1084 8.27244C28.8082 8.27244 28.513 8.39205 28.2003 8.51863C27.9351 8.62603 27.6609 8.73705 27.3708 8.7785C27.3292 8.78446 27.2946 8.81383 27.2821 8.85397L27.2627 8.91636C27.2478 8.91359 27.2335 8.91047 27.2195 8.90719C27.2462 8.7593 27.215 8.60487 27.128 8.47813C24.7803 5.06121 21.1806 4.91972 17.6995 4.78296C14.3554 4.65157 11.1967 4.52745 9.17663 1.58715C9.05804 1.41453 8.85518 1.31928 8.64673 1.33957C8.59714 1.34422 8.54922 1.35571 8.50363 1.37229C8.43485 1.30656 8.35225 1.26199 8.24915 1.22571L8.26376 1.1935C8.27634 1.16572 8.27678 1.13402 8.265 1.10595C8.25315 1.07789 8.2301 1.056 8.20145 1.04575C7.84605 0.917708 7.53972 0.899022 7.26946 0.882662C6.74588 0.850815 6.42981 0.83162 6.14529 0.0710764C6.12981 0.0297046 6.09091 0.00178388 6.04685 0.000256978C6.00307 -0.00294225 5.96207 0.0240331 5.94382 0.0642416L5.23795 1.62299C5.22239 1.65746 5.22573 1.69745 5.24682 1.72886C5.50065 2.10629 5.80407 2.2821 6.20164 2.2821C6.45315 2.2821 6.71018 2.21339 6.98226 2.14061C7.25855 2.06667 7.5443 1.99032 7.83725 1.9848C7.87942 1.984 7.9173 1.95898 7.93461 1.92052L7.96144 1.86112C8.00332 1.87435 8.0404 1.88896 8.07414 1.90736C6.41214 5.70011 4.75043 9.49294 3.0888 13.2858C3.06706 13.2764 3.04474 13.2673 3.02089 13.2589L3.03572 13.2261C3.04823 13.1984 3.04852 13.1668 3.03666 13.1388C3.02481 13.1108 3.00184 13.0891 2.97319 13.0788C2.61786 12.9509 2.31153 12.9323 2.04127 12.916C1.51761 12.8842 1.20155 12.8651 0.917032 12.1045C0.901545 12.0631 0.862718 12.0352 0.818583 12.0336C0.774376 12.0304 0.733804 12.0574 0.715553 12.0976C0.480192 12.617 0.244904 13.1365 0.00968789 13.6564C-0.00587198 13.6909 -0.00252733 13.7309 0.0185585 13.7623C0.272461 14.1396 0.575805 14.3153 0.973237 14.3153C1.22474 14.3153 1.48191 14.2465 1.75407 14.1736C2.03044 14.0997 2.31611 14.0233 2.60906 14.0177C2.65109 14.0169 2.68889 13.9921 2.70627 13.9538L2.71303 13.9389C2.7206 13.9222 2.72714 13.9079 2.73339 13.8942C2.77295 13.9068 2.80828 13.9205 2.84064 13.9376C2.83133 14.0662 2.86434 14.1962 2.93952 14.3057C5.28703 17.7228 8.88681 17.8642 12.3681 18.0008C15.7122 18.1322 18.8709 18.2563 20.8909 21.1962C20.9689 21.3099 21.0836 21.389 21.2121 21.4247C21.2506 21.5354 21.3181 21.6211 21.4172 21.7063L21.3918 21.7311C21.37 21.7524 21.3582 21.7818 21.3591 21.8121C21.36 21.8426 21.3735 21.8713 21.3966 21.8913C21.6814 22.1391 21.9602 22.2675 22.2061 22.3807C22.6827 22.6 22.9705 22.7324 22.9601 23.5446C22.9595 23.5887 22.9857 23.6289 23.0262 23.6462C23.04 23.6521 23.0547 23.655 23.0691 23.655C23.0971 23.655 23.1246 23.6443 23.1454 23.6239L24.3679 22.4269C24.395 22.4004 24.4063 22.3618 24.3981 22.325C24.2017 21.4522 23.555 21.3811 22.9296 21.3124C22.6452 21.2811 22.3512 21.2489 22.0762 21.1478C22.0363 21.1332 21.9918 21.1429 21.9617 21.1728C21.9438 21.1906 21.9295 21.2048 21.9158 21.2183C21.8954 21.2017 21.8765 21.1855 21.8595 21.1688C21.8726 21.1471 21.8845 21.1245 21.8948 21.1009L26.9539 9.55438C26.9858 9.56514 27.0194 9.57409 27.0554 9.58201L27.0447 9.61568C27.0356 9.64476 27.039 9.67639 27.0542 9.70286C27.0694 9.72932 27.0949 9.74823 27.1248 9.75492C27.3113 9.79709 27.4958 9.81672 27.705 9.81672C27.8352 9.81672 27.9544 9.80923 28.0698 9.80203C28.1692 9.79578 28.2631 9.78989 28.3516 9.78989C28.6567 9.78989 28.9579 9.8418 29.2857 10.4691C29.3046 10.5053 29.3419 10.5277 29.3823 10.5277C29.3855 10.5277 29.3888 10.5275 29.3921 10.5272C29.436 10.5232 29.4733 10.4931 29.4865 10.451L29.9951 8.81732C30.0063 8.78119 29.9981 8.74185 29.9732 8.71328ZM21.2265 19.7514C18.8922 17.1024 15.6031 16.9732 12.4135 16.848C9.16944 16.7206 6.10014 16.6002 4.07532 13.9093C5.66374 10.2835 7.2523 6.65763 8.84108 3.03189C11.1754 5.68121 14.4646 5.81042 17.6543 5.93577C20.8982 6.06315 23.9674 6.18356 25.9923 8.8744L21.2265 19.7514Z" fill="#3084C2"/>
</svg>
