<svg width="26" height="20" viewBox="0 0 26 20" fill="none" xmlns="http://www.w3.org/2000/svg">
<g clip-path="url(#clip0)">
<path fill-rule="evenodd" clip-rule="evenodd" d="M8.04792 0H19.1899C21.6979 0 23.6899 2.61897 23.7299 5.04797V9.32001C23.561 10.4377 23.0217 11.4663 22.1985 12.2409C21.3753 13.0155 20.3158 13.4913 19.1899 13.592H8.04792C4.98392 13.522 3.64791 11.771 3.09491 8.15503V5.242C3.72591 1.522 5.53992 0 8.04792 0ZM4.53991 5.242C4.53991 5.242 5.19792 1.55298 7.01592 1.55298H17.3329C17.3329 1.55298 13.1999 6.70402 17.3329 12.038H6.59992C6.59992 12.038 4.94292 11.838 4.53692 8.15503C4.42706 7.18708 4.42806 6.20973 4.53991 5.242ZM19.5939 1.56299C21.0779 1.56299 22.2809 3.906 22.2809 6.797C22.2809 9.688 21.0809 12.031 19.5939 12.031C18.1069 12.031 16.9059 9.688 16.9059 6.797C16.9059 3.906 18.1089 1.56299 19.5939 1.56299ZM19.7029 4.65601C20.3329 4.65601 20.8439 5.615 20.8439 6.797C20.8439 7.979 20.3329 8.93799 19.7029 8.93799C19.0729 8.93799 18.5629 7.979 18.5629 6.797C18.5629 5.615 19.0729 4.65601 19.6999 4.65601H19.7029ZM24.9999 5C25.1337 4.99049 25.2679 5.00987 25.3936 5.05676C25.5192 5.10366 25.6333 5.17696 25.7281 5.27179C25.823 5.36661 25.8963 5.48069 25.9432 5.60632C25.9901 5.73196 26.0094 5.86623 25.9999 6V7C26.0094 7.13377 25.9901 7.26804 25.9432 7.39368C25.8963 7.51931 25.823 7.63339 25.7281 7.72821C25.6333 7.82304 25.5192 7.89634 25.3936 7.94324C25.2679 7.99013 25.1337 8.00951 24.9999 8H19.9999V5H24.9999ZM0.999914 5C0.866148 4.99049 0.731905 5.00987 0.606268 5.05676C0.48063 5.10366 0.366529 5.17696 0.271703 5.27179C0.176878 5.36661 0.103538 5.48069 0.0566459 5.60632C0.00975353 5.73196 -0.00959309 5.86623 -8.62365e-05 6V7C-0.0210862 7.545 0.263914 7.762 0.999914 8C1.99748 8.09868 3.00235 8.09868 3.99991 8V5H0.999914ZM8.45992 13.4V19.808L10.5239 18.448L12.5869 19.808L14.4439 18.448L16.2999 20L18.1569 18.447L20.0139 19.807L21.8709 18.447L23.9339 19.807L23.9999 8C23.9999 8 22.6659 12.4 20.9999 13C19.3339 13.6 8.45992 13.4 8.45992 13.4ZM10.1109 13.594V17.283L10.7299 16.895L12.5869 18.06L14.4439 16.895L16.3019 18.254L18.1589 16.895L20.0159 18.06L21.8729 16.701L22.4919 17.089V11.846C22.1442 12.3548 21.6843 12.7769 21.1477 13.08C20.6111 13.383 20.0122 13.5589 19.3969 13.594H10.1109Z" fill="#3084C2"/>
</g>
<defs>
<clipPath id="clip0">
<rect width="26" height="20" fill="white"/>
</clipPath>
</defs>
</svg>
