<svg width="22" height="32" viewBox="0 0 22 32" fill="none" xmlns="http://www.w3.org/2000/svg">
<path fill-rule="evenodd" clip-rule="evenodd" d="M5.54926 3.4191C5.70102 3.41837 5.84958 3.46298 5.97612 3.54733C6.10266 3.63168 6.20149 3.75194 6.26007 3.89289C6.31865 4.03383 6.33436 4.18909 6.3052 4.33903C6.27603 4.48896 6.20332 4.62684 6.09626 4.73513C5.9892 4.84343 5.85263 4.91727 5.70383 4.94735C5.55504 4.97742 5.40071 4.96238 5.26043 4.90408C5.12014 4.84578 5.00021 4.74688 4.91581 4.6199C4.83142 4.49292 4.78637 4.3436 4.78637 4.19081C4.78604 3.98669 4.8662 3.79073 5.00924 3.64604C5.15227 3.50136 5.34649 3.41976 5.54926 3.4191ZM0.762884 3.4191C0.914648 3.41837 1.06323 3.46298 1.18977 3.54733C1.31631 3.63168 1.41513 3.75194 1.47371 3.89289C1.53229 4.03383 1.54798 4.18909 1.51882 4.33903C1.48966 4.48896 1.41694 4.62684 1.30988 4.73513C1.20283 4.84343 1.06626 4.91727 0.917459 4.94735C0.768664 4.97742 0.614351 4.96238 0.474068 4.90408C0.333786 4.84578 0.213849 4.74688 0.129456 4.6199C0.0450624 4.49292 1.05434e-05 4.3436 8.80616e-06 4.19081C-0.000316137 3.98669 0.0798458 3.79073 0.222879 3.64604C0.365913 3.50136 0.560118 3.41976 0.762884 3.4191ZM3.26183 1.54095C3.41359 1.54022 3.56215 1.58483 3.68869 1.66918C3.81523 1.75353 3.91406 1.87379 3.97264 2.01473C4.03122 2.15567 4.04693 2.31093 4.01776 2.46087C3.9886 2.61081 3.91588 2.74869 3.80883 2.85698C3.70177 2.96527 3.5652 3.03912 3.4164 3.06919C3.26761 3.09927 3.11329 3.08422 2.97301 3.02592C2.83273 2.96763 2.71279 2.86873 2.6284 2.74174C2.544 2.61476 2.49895 2.46544 2.49895 2.31266C2.49863 2.21154 2.51812 2.11134 2.5563 2.01781C2.59448 1.92428 2.65059 1.83919 2.72145 1.76751C2.79231 1.69584 2.8765 1.63895 2.96922 1.60007C3.06195 1.56118 3.16138 1.54111 3.26183 1.54095ZM3.26183 5.29846C3.41364 5.29773 3.56225 5.34244 3.68882 5.42684C3.81539 5.51124 3.9142 5.63153 3.97275 5.77254C4.03129 5.91356 4.04693 6.06894 4.01767 6.21891C3.98841 6.36888 3.91558 6.5067 3.8084 6.61494C3.70122 6.72319 3.56451 6.79699 3.41564 6.82693C3.26676 6.85687 3.11241 6.84162 2.97215 6.78313C2.83189 6.72465 2.71205 6.6255 2.6278 6.49835C2.54356 6.37121 2.49871 6.2218 2.49895 6.06897C2.49879 5.96795 2.51838 5.86789 2.55663 5.7745C2.59488 5.68111 2.65104 5.59619 2.72188 5.52465C2.79272 5.4531 2.87686 5.39631 2.9695 5.3575C3.06215 5.3187 3.16148 5.29862 3.26183 5.29846ZM0.762884 8.84203e-06C0.914648 -0.000722178 1.06323 0.04389 1.18977 0.128239C1.31631 0.212588 1.41513 0.332849 1.47371 0.473792C1.53229 0.614734 1.54798 0.77007 1.51882 0.920006C1.48966 1.06994 1.41694 1.20775 1.30988 1.31604C1.20283 1.42433 1.06626 1.49818 0.917459 1.52825C0.768664 1.55833 0.614351 1.54328 0.474068 1.48498C0.333786 1.42669 0.213849 1.32779 0.129456 1.2008C0.0450624 1.07382 1.05434e-05 0.924502 8.80616e-06 0.771718C-0.000316137 0.567592 0.0798458 0.371632 0.222879 0.226947C0.365913 0.0822618 0.560118 0.000660742 0.762884 8.84203e-06ZM0.762884 7.09541C0.914648 7.09468 1.06323 7.13929 1.18977 7.22364C1.31631 7.30799 1.41513 7.42825 1.47371 7.56919C1.53229 7.71013 1.54798 7.8654 1.51882 8.01533C1.48966 8.16527 1.41694 8.30315 1.30988 8.41144C1.20283 8.51973 1.06626 8.59358 0.917459 8.62365C0.768664 8.65373 0.614351 8.63868 0.474068 8.58039C0.333786 8.52209 0.213849 8.42319 0.129456 8.29621C0.0450624 8.16922 1.05434e-05 8.0199 8.80616e-06 7.86712C-0.000473853 7.76584 0.0188886 7.66541 0.056981 7.57167C0.0950734 7.47793 0.151146 7.39267 0.222003 7.32077C0.292859 7.24887 0.377097 7.19175 0.469908 7.15265C0.56272 7.11356 0.662277 7.09325 0.762884 7.09293V7.09541ZM10.0067 31.9126L10.1474 32H20.203L20.3632 31.616C21.3254 29.311 21.8735 26.8524 21.9818 24.3545C22.0638 22.3501 21.868 20.3439 21.3999 18.3939C20.9611 16.4411 20.2298 14.567 19.231 12.8357L19.0477 12.5452H14.1574V13.1729C14.1574 16.4332 12.7368 17.8498 11.233 19.3526C9.56828 20.6985 8.48174 22.6376 8.19856 24.768C7.90102 26.6518 8.10564 28.5813 8.79151 30.3594C9.04061 30.9829 9.46243 31.5211 10.0067 31.9102V31.9126ZM18.3594 13.8018C19.1883 15.3577 19.8102 17.0167 20.2091 18.736C20.3795 19.4611 20.5114 20.1948 20.604 20.9341H17.5867C17.9475 18.5704 17.9404 16.1646 17.5659 13.8031H18.3594V13.8018ZM12.1108 20.2474C13.0722 19.4614 13.8603 18.4823 14.4246 17.3725C14.989 16.2626 15.3173 15.0466 15.3885 13.8018H16.3079C16.7058 16.1619 16.7124 18.5719 16.3274 20.9341H11.4372C11.6523 20.7027 11.8785 20.4763 12.1108 20.2449V20.2474ZM8.42352 6.07137H9.47249V2.31506H8.42352C8.30937 2.31522 8.19636 2.33802 8.09096 2.38214C7.98556 2.42627 7.88984 2.4909 7.80923 2.57227C7.72863 2.65365 7.66473 2.75022 7.62119 2.85645C7.57766 2.96268 7.55533 3.0765 7.55549 3.19141V5.1963C7.55581 5.42784 7.64741 5.6498 7.81017 5.81341C7.97292 5.97702 8.19352 6.06897 8.42352 6.06897V6.07137ZM11.8394 7.57167C11.7833 7.52326 11.7245 7.47808 11.6633 7.43631C11.375 7.26763 11.0591 7.1522 10.7305 7.09541C10.7305 7.09541 10.129 10.9329 8.95045 12.1231C7.77189 13.3132 9.63143 13.7096 10.4689 11.8585C10.662 11.2853 10.9967 10.771 11.4415 10.3639C11.8863 9.95676 12.4267 9.67017 13.0118 9.53111C12.9416 9.31559 12.86 9.10399 12.7673 8.89724C12.5584 8.39148 12.2416 7.93814 11.8394 7.56927V7.57167ZM18.6564 10.9932C18.6564 7.27386 20.5637 6.3348 21.5906 6.09849C21.6566 6.08262 21.7175 6.05042 21.7681 6.00489C21.8186 5.95936 21.857 5.90191 21.88 5.83767C21.9029 5.77343 21.9096 5.70444 21.8994 5.63695C21.8892 5.56946 21.8625 5.5056 21.8217 5.4511C21.2315 4.54506 20.4398 3.78992 19.5092 3.24558C18.5786 2.70123 17.5349 2.3826 16.4607 2.31506H10.387V6.13049C13.842 6.13049 14.2613 10.9994 14.2613 10.9994H18.6626L18.6564 10.9932Z" fill="#3084C2"/>
</svg>
