<svg xmlns="http://www.w3.org/2000/svg" width="24" height="19" viewBox="0 0 24 19">
  <metadata><?xpacket begin="﻿" id="W5M0MpCehiHzreSzNTczkc9d"?>
<x:xmpmeta xmlns:x="adobe:ns:meta/" x:xmptk="Adobe XMP Core 5.6-c142 79.160924, 2017/07/13-01:06:39        ">
   <rdf:RDF xmlns:rdf="http://www.w3.org/1999/02/22-rdf-syntax-ns#">
      <rdf:Description rdf:about=""/>
   </rdf:RDF>
</x:xmpmeta>
<?xpacket end="w"?></metadata>
<defs>
    <style>
      .cls-1 {
        fill: #000000;
        fill-rule: evenodd;
      }
    </style>
  </defs>
  <path id="Текстиль" class="cls-1" d="M247.06,807.3v3.066H247.5a1.533,1.533,0,0,0,0-3.066H247.06Zm-13.278,14.554a2.175,2.175,0,0,1-2.174-2.2v-8.215h-2.4v11.48A1.066,1.066,0,0,0,230.283,824h10.882a1.082,1.082,0,0,0,1.095-1.082v-1.063h-8.478Zm-2.175-13.182a1.363,1.363,0,0,0-1.326-1.372H226.5a1.533,1.533,0,0,0,0,3.065h3.784a1.316,1.316,0,0,0,1.327-1.318v-0.375h0ZM230.248,805a1.049,1.049,0,0,0-1.05,1.072h0.751a2.912,2.912,0,0,1,2.859,2.937V819.7a1.066,1.066,0,0,0,1.076,1.082h10.881a1.082,1.082,0,0,0,1.1-1.082V807.253A2.234,2.234,0,0,0,243.67,805H230.248Z" transform="translate(-225 -805)"/>
</svg>
