<svg width="32" height="34" viewBox="0 0 32 34" fill="none" xmlns="http://www.w3.org/2000/svg">
<path d="M6 30V2H2V32H17M18 21V2H22V20.5" stroke="#3084C2" stroke-width="3"/>
<rect x="5" y="9" width="13" height="4" fill="#3084C2"/>
<path d="M20 29.5C20 30.674 19.7346 31.7122 19.3307 32.4392C18.9174 33.1831 18.4263 33.5 18 33.5C17.5737 33.5 17.0826 33.1831 16.6693 32.4392C16.2654 31.7122 16 30.674 16 29.5C16 28.326 16.2654 27.2878 16.6693 26.5608C17.0826 25.8169 17.5737 25.5 18 25.5C18.4263 25.5 18.9174 25.8169 19.3307 26.5608C19.7346 27.2878 20 28.326 20 29.5Z" stroke="#3084C2"/>
<path d="M29 33.5C30.3807 33.5 31.5 31.9853 31.5 29.5C31.5 27.0147 30.3807 25.5 29 25.5" stroke="#3084C2"/>
<path d="M29 25.5H18" stroke="#3084C2"/>
<path d="M18 33.5H29" stroke="#3084C2"/>
<path d="M16 29.5V20.5H30V25.7997" stroke="#3084C2"/>
<path d="M19 30L18.7906 29.3717C18.6301 28.8903 18.1097 28.6301 17.6283 28.7906V28.7906C17.2531 28.9156 17 29.2668 17 29.6623V29.8162C17 29.9379 17.0196 30.0589 17.0581 30.1743L17.4188 31.2565C17.4722 31.4166 17.5621 31.5621 17.6815 31.6815L17.6915 31.6915C17.889 31.889 18.1569 32 18.4363 32V32C18.7885 32 19.1173 31.824 19.3127 31.531L20 30.5" stroke="#3084C2"/>
</svg>
