<svg width="26" height="23" viewBox="0 0 26 23" fill="none" xmlns="http://www.w3.org/2000/svg">
<path fill-rule="evenodd" clip-rule="evenodd" d="M10.26 8.08708C10.26 8.35129 10.3136 8.61275 10.4176 8.85563C10.5216 9.09852 10.6738 9.31775 10.865 9.50007C10.9504 9.58162 11.0639 9.62712 11.182 9.62712C11.3001 9.62712 11.4136 9.58162 11.499 9.50007C11.5404 9.4604 11.5734 9.41276 11.5959 9.36C11.6185 9.30724 11.6301 9.25047 11.6301 9.1931C11.6301 9.13573 11.6185 9.07893 11.5959 9.02617C11.5734 8.9734 11.5404 8.92576 11.499 8.88609C11.39 8.78327 11.3032 8.65928 11.2439 8.52171C11.1846 8.38414 11.154 8.23589 11.154 8.08607C11.154 7.93626 11.1846 7.78803 11.2439 7.65046C11.3032 7.5129 11.39 7.38891 11.499 7.28608C11.6896 7.10342 11.8413 6.88405 11.945 6.64122C12.0486 6.39838 12.102 6.13711 12.102 5.87309C12.102 5.60907 12.0486 5.34777 11.945 5.10493C11.8413 4.8621 11.6896 4.64276 11.499 4.4601C11.4135 4.37878 11.3 4.33342 11.182 4.33342C11.064 4.33342 10.9505 4.37878 10.865 4.4601C10.8233 4.49971 10.79 4.5474 10.7673 4.60026C10.7446 4.65313 10.7329 4.71006 10.7329 4.76759C10.7329 4.82513 10.7446 4.88205 10.7673 4.93492C10.79 4.98778 10.8233 5.03547 10.865 5.07509C10.9732 5.17836 11.0593 5.30251 11.1181 5.44002C11.177 5.57752 11.2073 5.72551 11.2073 5.87507C11.2073 6.02464 11.177 6.17266 11.1181 6.31016C11.0593 6.44767 10.9732 6.57182 10.865 6.67509C10.6739 6.8573 10.5218 7.07637 10.4178 7.31907C10.3138 7.56177 10.2601 7.82304 10.26 8.08708ZM5.379 8.08708C5.3792 8.35125 5.43292 8.61266 5.5369 8.85551C5.64088 9.09836 5.79296 9.31761 5.98399 9.50007C6.06939 9.58162 6.18292 9.62712 6.30099 9.62712C6.41907 9.62712 6.5326 9.58162 6.618 9.50007C6.65969 9.46055 6.69291 9.41296 6.71561 9.36018C6.7383 9.3074 6.75 9.25055 6.75 9.1931C6.75 9.13564 6.7383 9.07876 6.71561 9.02598C6.69291 8.9732 6.65969 8.92562 6.618 8.88609C6.50981 8.78282 6.4237 8.65867 6.36487 8.52116C6.30603 8.38366 6.2757 8.23563 6.2757 8.08607C6.2757 7.93651 6.30603 7.78852 6.36487 7.65101C6.4237 7.51351 6.50981 7.38936 6.618 7.28608C6.80888 7.10356 6.96081 6.88425 7.06461 6.6414C7.1684 6.39855 7.22191 6.13719 7.22191 5.87309C7.22191 5.60899 7.1684 5.3476 7.06461 5.10475C6.96081 4.8619 6.80888 4.64262 6.618 4.4601C6.53249 4.37878 6.419 4.33342 6.30099 4.33342C6.18299 4.33342 6.0695 4.37878 5.98399 4.4601C5.94252 4.49986 5.90954 4.54757 5.88699 4.60042C5.86445 4.65326 5.85283 4.71014 5.85283 4.76759C5.85283 4.82504 5.86445 4.88189 5.88699 4.93474C5.90954 4.98758 5.94252 5.03533 5.98399 5.07509C6.09218 5.17836 6.1783 5.30251 6.23714 5.44002C6.29597 5.57752 6.32629 5.72551 6.32629 5.87507C6.32629 6.02464 6.29597 6.17266 6.23714 6.31016C6.1783 6.44767 6.09218 6.57182 5.98399 6.67509C5.79308 6.85744 5.64105 7.07653 5.53708 7.3192C5.4331 7.56186 5.37933 7.82307 5.379 8.08708ZM8.01801 6.78709C8.01733 7.05094 8.07014 7.31217 8.17326 7.55504C8.27639 7.7979 8.42768 8.01734 8.618 8.20009C8.70339 8.28163 8.81692 8.32713 8.935 8.32713C9.05307 8.32713 9.16661 8.28163 9.252 8.20009C9.29367 8.16065 9.32687 8.11314 9.34955 8.06044C9.37223 8.00774 9.38393 7.95097 9.38393 7.8936C9.38393 7.83622 9.37223 7.77943 9.34955 7.72673C9.32687 7.67403 9.29367 7.62652 9.252 7.58708C9.14382 7.48381 9.05771 7.35966 8.99887 7.22215C8.94004 7.08465 8.9097 6.93666 8.9097 6.78709C8.9097 6.63753 8.94004 6.48951 8.99887 6.352C9.05771 6.2145 9.14382 6.09035 9.252 5.98707C9.44288 5.80455 9.5948 5.58524 9.69859 5.34239C9.80239 5.09954 9.85591 4.83818 9.85591 4.57408C9.85591 4.30998 9.80239 4.04862 9.69859 3.80577C9.5948 3.56292 9.44288 3.34361 9.252 3.16108C9.16672 3.07931 9.05315 3.03364 8.935 3.03364C8.81685 3.03364 8.70327 3.07931 8.618 3.16108C8.57655 3.20076 8.54357 3.2484 8.52104 3.30116C8.49851 3.35392 8.48689 3.41072 8.48689 3.46809C8.48689 3.52546 8.49851 3.58223 8.52104 3.63499C8.54357 3.68775 8.57655 3.73542 8.618 3.7751C8.72618 3.87837 8.81229 4.00249 8.87112 4.14C8.92996 4.2775 8.9603 4.42552 8.9603 4.57509C8.9603 4.72465 8.92996 4.87267 8.87112 5.01018C8.81229 5.14768 8.72618 5.2718 8.618 5.37507C8.42814 5.55754 8.27712 5.77651 8.17401 6.01881C8.0709 6.26111 8.01785 6.52175 8.01801 6.78508V6.78709ZM25.931 19.3491C25.9385 19.2796 25.9344 19.2093 25.919 19.1411L22.443 10.4741L24.643 1.83607C24.644 1.82176 24.644 1.80739 24.643 1.79307C24.6484 1.77339 24.6524 1.75334 24.655 1.73308V0.433088C24.6541 0.375218 24.6418 0.318098 24.6187 0.264997C24.5957 0.211896 24.5625 0.163862 24.5208 0.123639C24.4792 0.0834171 24.4301 0.0517917 24.3762 0.0305913C24.3224 0.00939085 24.2649 -0.000985797 24.207 7.36752e-05H1.793C1.73513 -0.000985797 1.67763 0.00939085 1.62378 0.0305913C1.56993 0.0517917 1.52077 0.0834171 1.47916 0.123639C1.43754 0.163862 1.40428 0.211896 1.38126 0.264997C1.35823 0.318098 1.34591 0.375218 1.345 0.433088V1.73308C1.34591 1.79099 1.35822 1.84816 1.38123 1.90132C1.40423 1.95447 1.43749 2.00259 1.4791 2.04289C1.5207 2.08319 1.56983 2.1149 1.62369 2.13621C1.67755 2.15752 1.73508 2.16802 1.793 2.1671H1.86L3.741 10.1801C3.66006 10.2554 3.59952 10.35 3.565 10.4551L0.098999 19.0841L0.0809937 19.1421C0.0623696 19.2214 0.059655 19.3037 0.072998 19.3841C0.0268378 19.4598 0.00164541 19.5464 0 19.6351V22.3081C0.00130214 22.4002 0.020768 22.4911 0.0572815 22.5757C0.093795 22.6602 0.14664 22.7368 0.212784 22.8009C0.278928 22.865 0.357068 22.9154 0.442734 22.9492C0.5284 22.9831 0.619911 22.9997 0.712006 22.9981H25.288C25.3801 22.9997 25.4716 22.9831 25.5573 22.9492C25.6429 22.9154 25.7211 22.865 25.7872 22.8009C25.8534 22.7368 25.9062 22.6602 25.9427 22.5757C25.9792 22.4911 25.9987 22.4002 26 22.3081V19.5811C25.9982 19.4984 25.9744 19.4176 25.931 19.3471V19.3491ZM4.369 10.8491H6.952C5.80663 11.1901 4.72399 11.7142 3.746 12.4011L4.369 10.8491ZM22.254 12.4001C21.2757 11.714 20.1931 11.1902 19.048 10.8491H21.631L22.254 12.4001ZM9.114 16.8341C9.14936 16.6841 9.23321 16.55 9.35254 16.4526C9.47187 16.3551 9.62001 16.2998 9.774 16.2951C9.83286 16.1818 9.9213 16.0865 10.0299 16.0195C10.1386 15.9524 10.2633 15.916 10.391 15.9141C10.4426 15.8436 10.5135 15.7896 10.5951 15.7585C10.6767 15.7274 10.7656 15.7207 10.851 15.7391C10.9077 15.7494 10.9619 15.7709 11.0102 15.8024C11.0585 15.8339 11.0999 15.8748 11.1322 15.9226C11.1644 15.9704 11.1868 16.0242 11.1979 16.0808C11.2091 16.1374 11.2087 16.1956 11.197 16.2521C11.1619 16.4021 11.0783 16.5363 10.9591 16.6339C10.84 16.7315 10.6919 16.7871 10.538 16.7921C10.4789 16.9054 10.3903 17.0006 10.2815 17.0677C10.1727 17.1348 10.0478 17.1712 9.92 17.1731C9.87779 17.2305 9.82266 17.2771 9.75908 17.3093C9.6955 17.3414 9.62524 17.3581 9.554 17.3581C9.52278 17.3581 9.49164 17.355 9.461 17.3491C9.40373 17.3386 9.34915 17.3167 9.30049 17.2847C9.25183 17.2528 9.21009 17.2114 9.17773 17.163C9.14538 17.1146 9.12305 17.0602 9.11211 17.003C9.10116 16.9458 9.1018 16.887 9.114 16.8301V16.8341ZM7.621 14.7541C7.38092 14.6759 7.16713 14.5328 7.0033 14.3406C6.83946 14.1485 6.73196 13.9148 6.69267 13.6654C6.65339 13.416 6.68384 13.1605 6.78069 12.9274C6.87753 12.6942 7.03698 12.4923 7.24141 12.3441C7.44583 12.1959 7.68727 12.1071 7.93901 12.0875C8.19076 12.068 8.44301 12.1184 8.66786 12.2333C8.89272 12.3482 9.08142 12.523 9.2131 12.7385C9.34478 12.9539 9.41431 13.2016 9.414 13.4541C9.34214 13.8607 9.11478 14.2235 8.78009 14.4654C8.4454 14.7073 8.02968 14.8094 7.621 14.7501V14.7541ZM12.103 13.8861C11.8629 13.8079 11.6491 13.6648 11.4853 13.4727C11.3215 13.2805 11.214 13.0468 11.1747 12.7974C11.1354 12.548 11.1659 12.2925 11.2627 12.0593C11.3595 11.8261 11.519 11.6243 11.7234 11.4761C11.9278 11.3278 12.1693 11.239 12.421 11.2195C12.6728 11.1999 12.925 11.2504 13.1499 11.3653C13.3747 11.4802 13.5634 11.655 13.6951 11.8705C13.8268 12.0859 13.8963 12.3336 13.896 12.5861C13.8241 12.9933 13.5963 13.3565 13.261 13.5985C12.9256 13.8405 12.5092 13.9423 12.1 13.8821L12.103 13.8861ZM12.233 15.4041C12.1683 15.4244 12.1008 15.4348 12.033 15.4351C11.9177 15.4348 11.8041 15.4066 11.702 15.3531C11.5911 15.2957 11.4975 15.2098 11.431 15.1041C11.3052 15.1071 11.1806 15.0793 11.068 15.0231C10.9528 14.9632 10.8566 14.8725 10.79 14.7611C10.7039 14.7526 10.6221 14.7192 10.5547 14.6651C10.4872 14.6109 10.4369 14.5383 10.41 14.4561C10.3933 14.4009 10.3878 14.3429 10.3939 14.2855C10.4 14.2281 10.4176 14.1726 10.4456 14.1221C10.4735 14.0717 10.5114 14.0274 10.5568 13.9918C10.6022 13.9562 10.6543 13.9301 10.71 13.9151C10.8885 13.8619 11.0807 13.8802 11.246 13.9661C11.3567 14.0237 11.4502 14.1096 11.517 14.2151C11.6444 14.2113 11.7706 14.2408 11.883 14.3008C11.9954 14.3608 12.0902 14.4491 12.158 14.5571C12.2442 14.5658 12.326 14.5993 12.3934 14.6537C12.4609 14.708 12.5111 14.7807 12.538 14.8631C12.5534 14.9182 12.5578 14.9758 12.5508 15.0326C12.5437 15.0894 12.5255 15.1442 12.4971 15.1938C12.4688 15.2435 12.4308 15.2871 12.3855 15.322C12.3401 15.3569 12.2883 15.3824 12.233 15.3971V15.4041ZM11.207 18.2261C11.0832 17.8474 11.0825 17.4392 11.205 17.0601C11.3275 16.681 11.567 16.3504 11.889 16.1158C12.211 15.8812 12.599 15.7545 12.9974 15.7541C13.3958 15.7536 13.7842 15.8793 14.1067 16.1132C14.4293 16.3471 14.6695 16.677 14.7929 17.0559C14.9163 17.4347 14.9166 17.8429 14.7937 18.2218C14.6708 18.6008 14.431 18.9311 14.1088 19.1654C13.7866 19.3998 13.3984 19.526 13 19.5261C12.5901 19.5852 12.1734 19.482 11.8385 19.2384C11.5036 18.9949 11.277 18.6302 11.207 18.2221V18.2261ZM15.263 16.7071C15.1981 16.7263 15.1307 16.736 15.063 16.7361C14.9477 16.7358 14.8341 16.7077 14.732 16.6541C14.6209 16.5974 14.5273 16.5117 14.461 16.4061C14.3351 16.4093 14.2103 16.3811 14.098 16.3241C13.9823 16.2654 13.8859 16.1748 13.82 16.0631C13.7337 16.0548 13.6517 16.0213 13.5842 15.967C13.5167 15.9126 13.4665 15.8396 13.44 15.7571C13.4233 15.7019 13.4178 15.644 13.424 15.5867C13.4301 15.5294 13.4476 15.4739 13.4756 15.4235C13.5036 15.3732 13.5414 15.3289 13.5869 15.2935C13.6323 15.258 13.6844 15.232 13.74 15.2171C13.9184 15.1629 14.111 15.1813 14.276 15.2681C14.3869 15.3254 14.4805 15.4114 14.547 15.5171C14.6741 15.5146 14.7998 15.5448 14.912 15.6047C15.0242 15.6645 15.1192 15.7521 15.188 15.8591C15.2742 15.8677 15.3561 15.9012 15.4236 15.9555C15.491 16.0099 15.5412 16.0827 15.568 16.1651C15.5837 16.2204 15.5883 16.2784 15.5815 16.3355C15.5747 16.3927 15.5565 16.4479 15.5281 16.4979C15.4997 16.548 15.4617 16.5919 15.4162 16.6271C15.3707 16.6624 15.3186 16.6882 15.263 16.7031V16.7071ZM14.793 13.0181C14.6692 12.6394 14.6685 12.2312 14.791 11.8521C14.9136 11.473 15.153 11.1424 15.475 10.9078C15.797 10.6732 16.185 10.5466 16.5834 10.5461C16.9818 10.5456 17.3702 10.6713 17.6927 10.9052C18.0153 11.1391 18.2555 11.4691 18.3789 11.8479C18.5023 12.2267 18.5026 12.6349 18.3797 13.0138C18.2568 13.3928 18.017 13.7232 17.6948 13.9575C17.3726 14.1918 16.9844 14.318 16.586 14.3181C16.1762 14.377 15.7596 14.2736 15.4247 14.0301C15.0899 13.7866 14.8633 13.4221 14.793 13.0141V13.0181ZM17.931 16.0561C18.1711 16.1343 18.3849 16.2774 18.5487 16.4695C18.7125 16.6616 18.82 16.8953 18.8593 17.1448C18.8986 17.3942 18.8681 17.6496 18.7713 17.8828C18.6745 18.116 18.515 18.3179 18.3106 18.4661C18.1062 18.6143 17.8647 18.7031 17.613 18.7227C17.3612 18.7422 17.109 18.6917 16.8841 18.5769C16.6593 18.462 16.4706 18.2871 16.3389 18.0717C16.2072 17.8563 16.1377 17.6086 16.138 17.3561C16.208 16.948 16.4346 16.5833 16.7695 16.3397C17.1044 16.0962 17.5211 15.9929 17.931 16.0521V16.0561ZM18.831 14.7561C18.7072 14.3774 18.7065 13.9693 18.829 13.5902C18.9515 13.2111 19.1909 12.8806 19.5128 12.6459C19.8347 12.4113 20.2227 12.2846 20.621 12.2841C21.0194 12.2835 21.4077 12.4091 21.7303 12.6429C22.0529 12.8766 22.2932 13.2065 22.4167 13.5853C22.5402 13.964 22.5407 14.3721 22.4179 14.7511C22.2952 15.1301 22.0556 15.4605 21.7335 15.695C21.4114 15.9294 21.0234 16.0558 20.625 16.0561C20.2141 16.116 19.7961 16.013 19.4602 15.769C19.1243 15.525 18.897 15.1593 18.827 14.7501L18.831 14.7561ZM6.28 15.6241C6.52009 15.7023 6.73387 15.8454 6.89771 16.0375C7.06154 16.2297 7.16904 16.4634 7.20833 16.7128C7.24761 16.9622 7.21714 17.2176 7.1203 17.4508C7.02346 17.684 6.86402 17.8859 6.65959 18.0341C6.45517 18.1823 6.21374 18.2711 5.96199 18.2907C5.71025 18.3102 5.45799 18.2598 5.23314 18.1449C5.00828 18.03 4.81958 17.8551 4.6879 17.6397C4.55622 17.4242 4.48669 17.1766 4.487 16.9241C4.55682 16.5165 4.78269 16.1521 5.11668 15.9083C5.45068 15.6645 5.86652 15.5604 6.276 15.6181L6.28 15.6241ZM24.012 16.7711L24.946 19.0961H22.569C23.2284 18.4455 23.7219 17.6461 24.008 16.7651L24.012 16.7711ZM11.23 2.17109C11.4004 2.5596 11.6804 2.89005 12.0355 3.12208C12.3907 3.35411 12.8057 3.47767 13.23 3.47767C13.6542 3.47767 14.0693 3.35411 14.4245 3.12208C14.7797 2.89005 15.0596 2.5596 15.23 2.17109H23.643L21.654 9.98308H4.614L2.77901 2.17109H11.226H11.23ZM1.996 16.7711C2.28405 17.6506 2.77929 18.448 3.44 19.0961H1.062L1.996 16.7711ZM25.1 22.1271H0.899994V19.9571H10.421C10.6299 20.4706 10.9872 20.9103 11.4472 21.2197C11.9072 21.5292 12.4491 21.6945 13.0035 21.6945C13.5579 21.6945 14.0998 21.5292 14.5598 21.2197C15.0198 20.9103 15.3771 20.4706 15.586 19.9571H25.106V22.1271H25.1Z" fill="#3084C2"/>
</svg>
