<svg width="23" height="24" viewBox="0 0 23 24" fill="none" xmlns="http://www.w3.org/2000/svg">
<g clip-path="url(#clip0)">
<path fill-rule="evenodd" clip-rule="evenodd" d="M16.235 13.835H18.9409V18.493H16.235V13.835ZM22.1349 10.078C21.6997 9.37399 21.1123 8.77635 20.416 8.32898H14.752C14.0558 8.77661 13.4685 9.3742 13.033 10.078C12.4678 10.9929 12.1695 12.0476 12.1719 13.123V24H23V13.123C23.0024 12.0476 22.7042 10.9929 22.139 10.078H22.1349ZM20.2899 19.9H14.878V12.429H20.2899V19.9ZM20.2899 1.40002V0H12.1719V1.40002H16.908V3.276H14.878V6.91998H20.2899V3.28003H18.261V1.40002H20.2899ZM4.05494 10.661H6.76095V18.489H4.05494V10.661ZM9.95495 6.79303C9.55625 6.14634 9.02821 5.589 8.40396 5.15601H2.40396C1.77993 5.58926 1.25193 6.14655 0.852949 6.79303C0.287844 7.70798 -0.0103598 8.76262 -0.00804325 9.83801V24H10.815V9.84198C10.8196 8.76831 10.5242 7.71471 9.96196 6.79999L9.95495 6.79303ZM8.11094 19.893H2.69896V9.25897H8.11094V19.9V19.893ZM2.70595 0H8.11795V3.755H2.70595V0Z" fill="#3084C2"/>
</g>
<defs>
<clipPath id="clip0">
<rect width="23" height="24" fill="white"/>
</clipPath>
</defs>
</svg>
