<svg width="24" height="24" viewBox="0 0 24 24" fill="none" xmlns="http://www.w3.org/2000/svg">
<g clip-path="url(#clip0)">
<path fill-rule="evenodd" clip-rule="evenodd" d="M7.42788 15.3259C7.19303 15.0883 7.00819 14.806 6.88427 14.4958C6.76035 14.1855 6.69986 13.8536 6.70639 13.5196C6.71291 13.1856 6.78632 12.8563 6.92227 12.5511C7.05821 12.2459 7.25394 11.9711 7.49789 11.7429C7.99614 11.2759 8.65693 11.0217 9.3397 11.0344C10.0225 11.0471 10.6734 11.3257 11.1539 11.8109L11.1769 11.8349L10.5289 6.44586C10.4921 6.11231 10.5216 5.77476 10.6157 5.45264C10.7097 5.13051 10.8665 4.83016 11.0769 4.56879C11.2874 4.30741 11.5474 4.09018 11.8421 3.92957C12.1367 3.76896 12.4602 3.66813 12.7939 3.63287C12.8769 3.62287 12.9599 3.61791 13.0429 3.61591L13.1429 2.42389C13.1679 2.08453 13.0579 1.74904 12.8368 1.49036C12.6157 1.23168 12.3015 1.07075 11.9624 1.04254C11.6233 1.01434 11.2867 1.12112 11.026 1.33972C10.7652 1.55833 10.6013 1.87108 10.5699 2.2099L10.2089 6.37189C10.2021 6.4237 10.1761 6.47104 10.136 6.50464C10.096 6.53823 10.0448 6.5556 9.99264 6.55334C9.94043 6.55109 9.89097 6.52936 9.854 6.49243C9.81702 6.4555 9.79522 6.40609 9.79289 6.35388V1.26288C9.78353 0.926573 9.64335 0.607184 9.40217 0.37262C9.16099 0.138056 8.83782 0.00683594 8.50138 0.00683594C8.16495 0.00683594 7.84178 0.138056 7.6006 0.37262C7.35941 0.607184 7.21925 0.926573 7.20989 1.26288V6.27386C7.20849 6.31701 7.191 6.35812 7.16087 6.38904C7.13073 6.41995 7.09012 6.43847 7.04702 6.44098C7.00392 6.44348 6.96144 6.42974 6.92793 6.40253C6.89441 6.37531 6.87228 6.33658 6.86589 6.29388L6.37689 2.22687C6.33249 1.89016 6.15689 1.58465 5.88833 1.37677C5.61977 1.16889 5.27997 1.07547 4.94288 1.11688C4.77619 1.13444 4.61462 1.18474 4.46745 1.26495C4.32027 1.34516 4.19041 1.45366 4.08531 1.58423C3.9802 1.71479 3.90194 1.86485 3.85502 2.02576C3.8081 2.18667 3.79344 2.35526 3.81188 2.52185L4.8199 10.9079C4.82506 10.9613 4.81353 11.0149 4.78692 11.0614C4.76031 11.1079 4.71991 11.1451 4.67131 11.1677C4.6227 11.1903 4.56828 11.1973 4.51554 11.1876C4.46281 11.178 4.41436 11.1522 4.37689 11.1139L2.21888 8.91388C1.97882 8.67164 1.65376 8.53259 1.31278 8.52625C0.971806 8.5199 0.641803 8.64675 0.392893 8.87988C0.271055 8.99382 0.173289 9.13102 0.105387 9.28339C0.0374851 9.43576 0.000816155 9.60019 -0.00244678 9.76697C-0.00570972 9.93375 0.0244995 10.0995 0.0863899 10.2544C0.14828 10.4093 0.240601 10.5503 0.35789 10.6689C6.11089 16.5249 6.27289 16.5239 6.41889 16.6149C6.23731 16.6471 6.07272 16.7418 5.95364 16.8826C5.83456 17.0234 5.76849 17.2015 5.76689 17.3859V19.4359C5.769 19.646 5.85445 19.8467 6.00445 19.9939C6.15445 20.1411 6.35674 20.2228 6.56689 20.2209H12.2339L7.42788 15.3259ZM22.5729 15.6529L23.9729 8.91791C24.0028 8.76846 24.0027 8.61452 23.9728 8.46509C23.9428 8.31566 23.8836 8.17368 23.7984 8.0473C23.7132 7.92093 23.6038 7.81266 23.4765 7.72882C23.3493 7.64499 23.2066 7.58727 23.0569 7.5589C22.7539 7.49622 22.4384 7.55556 22.1789 7.72406C21.9194 7.89256 21.7369 8.15658 21.6709 8.45886L21.1109 11.1439C21.0974 11.19 21.0678 11.2298 21.0275 11.2559C20.9871 11.2819 20.9387 11.2926 20.8911 11.2859C20.8435 11.2793 20.7999 11.2557 20.7683 11.2195C20.7367 11.1833 20.7191 11.1369 20.7189 11.0889L21.1429 6.20087C21.1696 5.86065 21.0605 5.52368 20.8395 5.26367C20.6184 5.00366 20.3034 4.84177 19.9633 4.81335C19.6233 4.78494 19.2858 4.89234 19.0247 5.11206C18.7635 5.33178 18.6 5.64597 18.5699 5.9859L18.2089 10.1489C18.2037 10.202 18.1784 10.2512 18.1381 10.2863C18.0979 10.3214 18.0457 10.3397 17.9923 10.3375C17.939 10.3353 17.8885 10.3128 17.8512 10.2746C17.8139 10.2364 17.7927 10.1853 17.7919 10.1319V5.03986C17.7919 4.69746 17.6559 4.36912 17.4138 4.12701C17.1717 3.8849 16.8433 3.7489 16.5009 3.7489C16.1585 3.7489 15.8301 3.8849 15.588 4.12701C15.3459 4.36912 15.2099 4.69746 15.2099 5.03986V10.0509C15.2085 10.0941 15.191 10.1351 15.1609 10.166C15.1307 10.1969 15.0901 10.2155 15.047 10.218C15.0039 10.2205 14.9614 10.2068 14.9279 10.1796C14.8944 10.1524 14.8723 10.1136 14.8659 10.0709L14.3799 5.99988C14.3358 5.6632 14.1602 5.3577 13.8915 5.15009C13.6228 4.94247 13.2828 4.84965 12.9459 4.89191C12.7796 4.90924 12.6183 4.95919 12.4714 5.039C12.3244 5.11881 12.1947 5.22686 12.0896 5.35693C11.9845 5.48701 11.9061 5.63656 11.859 5.797C11.8119 5.95744 11.7969 6.12562 11.8149 6.29187L12.8229 14.6779C12.828 14.7312 12.8165 14.7849 12.7899 14.8314C12.7633 14.878 12.7229 14.9151 12.6743 14.9377C12.6257 14.9603 12.5713 14.9672 12.5185 14.9576C12.4658 14.9479 12.4174 14.9222 12.3799 14.8839L10.2219 12.6839C9.98196 12.4414 9.65685 12.3022 9.31579 12.2958C8.97474 12.2895 8.64468 12.4165 8.39588 12.6499C8.27402 12.7639 8.17625 12.9012 8.10833 13.0536C8.04042 13.2061 8.00375 13.3706 8.00048 13.5375C7.99722 13.7043 8.02743 13.8702 8.08933 14.0251C8.15124 14.1801 8.24356 14.3212 8.36088 14.4399C8.36088 14.4399 14.2759 20.2929 14.4219 20.3849C14.2403 20.4171 14.0757 20.5118 13.9566 20.6526C13.8375 20.7934 13.7715 20.9715 13.7699 21.1559V23.2059C13.772 23.416 13.8574 23.6167 14.0074 23.7639C14.1574 23.9111 14.3597 23.9928 14.5699 23.9909H22.1809C22.285 23.992 22.3883 23.9725 22.4848 23.9336C22.5814 23.8947 22.6693 23.8371 22.7436 23.7642C22.8179 23.6913 22.8771 23.6045 22.9178 23.5087C22.9586 23.4129 22.98 23.31 22.9809 23.2059V21.1559C22.9795 20.9704 22.9127 20.7913 22.7924 20.6501C22.672 20.509 22.5058 20.4146 22.3229 20.3839C22.483 20.1696 22.5697 19.9094 22.5699 19.6419V15.6419L22.5729 15.6529ZM20.9579 23.0329C20.7855 23.0295 20.618 22.9753 20.4764 22.8771C20.3347 22.7789 20.2252 22.6411 20.1616 22.4809C20.098 22.3207 20.0832 22.1452 20.1189 21.9766C20.1546 21.808 20.2394 21.6537 20.3625 21.5331C20.4856 21.4124 20.6416 21.3308 20.811 21.2985C20.9803 21.2662 21.1554 21.2847 21.3142 21.3515C21.4731 21.4184 21.6087 21.5307 21.704 21.6743C21.7993 21.8179 21.8501 21.9865 21.8499 22.1589C21.8487 22.2748 21.8247 22.3894 21.7792 22.4961C21.7338 22.6028 21.6677 22.6995 21.5849 22.7806C21.5021 22.8618 21.4041 22.9258 21.2965 22.9691C21.1889 23.0124 21.0738 23.0341 20.9579 23.0329Z" fill="#3084C2"/>
</g>
<defs>
<clipPath id="clip0">
<rect width="24" height="24" fill="white"/>
</clipPath>
</defs>
</svg>
