<svg width="24" height="24" viewBox="0 0 24 24" fill="none" xmlns="http://www.w3.org/2000/svg">
<g clip-path="url(#clip0)">
<path fill-rule="evenodd" clip-rule="evenodd" d="M20.484 18.373H18.375V0.700073C18.375 0.513626 18.301 0.33481 18.1691 0.202972C18.0373 0.0711343 17.8585 -0.00292969 17.672 -0.00292969C17.4856 -0.00292969 17.3068 0.0711343 17.1749 0.202972C17.0431 0.33481 16.969 0.513626 16.969 0.700073V18.371H14.859C13.9269 18.3721 13.0333 18.7429 12.3744 19.4021C11.7154 20.0613 11.3448 20.955 11.344 21.8871C11.344 22.0727 11.4178 22.2507 11.5491 22.382C11.6803 22.5133 11.8584 22.587 12.044 22.587H12.744V23.287C12.744 23.4735 12.8181 23.6523 12.9499 23.7842C13.0818 23.916 13.2606 23.9901 13.447 23.9901C13.6335 23.9901 13.8123 23.916 13.9441 23.7842C14.076 23.6523 14.15 23.4735 14.15 23.287V22.587H15.556V23.287C15.556 23.4736 15.6302 23.6526 15.7621 23.7845C15.894 23.9164 16.073 23.9905 16.2595 23.9905C16.4461 23.9905 16.625 23.9164 16.757 23.7845C16.8889 23.6526 16.963 23.4736 16.963 23.287V22.587H18.369V23.287C18.369 23.4735 18.4431 23.6523 18.5749 23.7842C18.7068 23.916 18.8856 23.9901 19.072 23.9901C19.2585 23.9901 19.4373 23.916 19.5691 23.7842C19.701 23.6523 19.775 23.4735 19.775 23.287V22.587H21.181V23.287C21.181 23.4736 21.2552 23.6526 21.3871 23.7845C21.519 23.9164 21.698 23.9905 21.8845 23.9905C22.0711 23.9905 22.25 23.9164 22.382 23.7845C22.5139 23.6526 22.588 23.4736 22.588 23.287V22.587H23.288C23.4737 22.587 23.6517 22.5133 23.783 22.382C23.9143 22.2507 23.988 22.0727 23.988 21.8871C23.9865 20.9573 23.6171 20.0659 22.9606 19.4075C22.3041 18.7492 21.4138 18.3773 20.484 18.373ZM3.55003 2.90005C3.41159 2.90005 3.27625 2.94109 3.16113 3.01801C3.04602 3.09492 2.9563 3.20425 2.90332 3.33215C2.85034 3.46006 2.83647 3.60085 2.86348 3.73663C2.89049 3.87242 2.95716 3.99714 3.05506 4.09503C3.15295 4.19293 3.27768 4.25961 3.41347 4.28662C3.54926 4.31363 3.68999 4.29975 3.8179 4.24677C3.94581 4.19378 4.05515 4.10407 4.13207 3.98895C4.20898 3.87384 4.25003 3.73848 4.25003 3.60004C4.27164 3.50366 4.26854 3.40339 4.24101 3.30853C4.21349 3.21368 4.16243 3.12733 4.09259 3.0575C4.02275 2.98766 3.93639 2.93661 3.84154 2.90909C3.74668 2.88156 3.64641 2.87845 3.55003 2.90005ZM2.10903 5.71307C1.69171 5.71307 1.28377 5.83681 0.936784 6.06866C0.589796 6.30051 0.31934 6.63007 0.159639 7.01562C-6.21229e-05 7.40118 -0.0418474 7.82538 0.0395674 8.23468C0.120982 8.64398 0.321947 9.01997 0.617036 9.31506C0.912125 9.61015 1.28809 9.8111 1.69739 9.89252C2.10669 9.97393 2.53094 9.93216 2.91649 9.77246C3.30204 9.61276 3.63159 9.34229 3.86344 8.9953C4.09528 8.64831 4.21903 8.24038 4.21903 7.82306C4.2177 7.26423 3.99485 6.7287 3.59932 6.33392C3.20379 5.93914 2.66786 5.7173 2.10903 5.71704V5.71307ZM7.03104 9.93207V0.700073C7.03104 0.513626 6.95696 0.33481 6.82512 0.202972C6.69328 0.0711343 6.51448 -0.00292969 6.32803 -0.00292969C6.14159 -0.00292969 5.96277 0.0711343 5.83093 0.202972C5.6991 0.33481 5.62503 0.513626 5.62503 0.700073V10.2001C4.89287 10.4537 4.24434 10.9034 3.75003 11.5001C3.32571 11.3511 2.87189 11.3059 2.42653 11.3683C1.98117 11.4306 1.5572 11.5987 1.19008 11.8584C0.82296 12.1181 0.523353 12.4619 0.316316 12.8611C0.109279 13.2604 0.00083088 13.7034 3.18495e-05 14.1531H11.25C11.2484 13.0348 10.8034 11.9628 10.0124 11.1722C9.22151 10.3817 8.14931 9.93709 7.03104 9.93604V9.93207ZM0.107026 15.5571L1.41603 23.4061C1.44269 23.5705 1.52711 23.72 1.65413 23.8278C1.78115 23.9356 1.94244 23.9946 2.10903 23.9941H9.14104C9.30762 23.9946 9.46891 23.9356 9.59593 23.8278C9.72296 23.72 9.80738 23.5705 9.83403 23.4061L11.142 15.5571H0.107026ZM5.62503 21.1821C4.87931 21.1813 4.16439 20.8846 3.63718 20.3572C3.10997 19.8298 2.81356 19.1148 2.81304 18.3691C2.81304 18.1826 2.8871 18.0038 3.01894 17.8719C3.15078 17.7401 3.32959 17.6661 3.51604 17.6661C3.70249 17.6661 3.88129 17.7401 4.01312 17.8719C4.14496 18.0038 4.21903 18.1826 4.21903 18.3691C4.21903 18.742 4.36717 19.0996 4.63085 19.3633C4.89452 19.627 5.25214 19.7751 5.62503 19.7751C5.99793 19.7751 6.35554 19.627 6.61922 19.3633C6.88289 19.0996 7.03104 18.742 7.03104 18.3691C7.03104 18.1825 7.10515 18.0035 7.23708 17.8716C7.36901 17.7397 7.54795 17.6656 7.73453 17.6656C7.92111 17.6656 8.10005 17.7397 8.23198 17.8716C8.36391 18.0035 8.43804 18.1825 8.43804 18.3691C8.4383 19.1156 8.14214 19.8316 7.61466 20.3599C7.08717 20.8881 6.37153 21.1852 5.62503 21.186V21.1821Z" fill="#3084C2"/>
</g>
<defs>
<clipPath id="clip0">
<rect width="24" height="24" fill="white"/>
</clipPath>
</defs>
</svg>
