<svg width="26" height="22" viewBox="0 0 26 22" fill="none" xmlns="http://www.w3.org/2000/svg">
<g clip-path="url(#clip0)">
<path fill-rule="evenodd" clip-rule="evenodd" d="M4.64301 4.44011e-05H2.786C2.66509 -0.0011429 2.54515 0.021492 2.43301 0.0666948C2.32087 0.111898 2.21874 0.178771 2.13246 0.263472C2.04618 0.348173 1.97744 0.449062 1.93018 0.560347C1.88291 0.671632 1.85804 0.791129 1.85699 0.912032V3.71202H5.571V0.912032C5.56995 0.791214 5.54511 0.671811 5.49791 0.560591C5.45071 0.449372 5.38207 0.348526 5.2959 0.263838C5.20972 0.17915 5.10771 0.112262 4.99568 0.067C4.88366 0.0217379 4.76382 -0.00101075 4.64301 4.44011e-05ZM0 12.8221H1.85699V16.4681H0V12.8221ZM13.929 4.44011e-05H12.071C11.9502 -0.00101075 11.8303 0.0217379 11.7183 0.067C11.6063 0.112262 11.5043 0.17915 11.4181 0.263838C11.3319 0.348526 11.2633 0.449372 11.2161 0.560591C11.1689 0.671811 11.1441 0.791214 11.143 0.912032V3.71202H14.857V0.912032C14.8559 0.791214 14.8311 0.671811 14.7839 0.560591C14.7367 0.449372 14.6681 0.348526 14.5819 0.263838C14.4957 0.17915 14.3937 0.112262 14.2817 0.067C14.1697 0.0217379 14.0498 -0.00101075 13.929 4.44011e-05ZM9.286 12.824H11.143V16.47H9.286V12.824ZM23.214 4.44011e-05H21.357C21.2362 -0.00101075 21.1163 0.0217379 21.0043 0.067C20.8923 0.112262 20.7903 0.17915 20.7041 0.263838C20.6179 0.348526 20.5493 0.449372 20.5021 0.560591C20.4549 0.671811 20.43 0.791214 20.429 0.912032V3.71202H24.143V0.912032C24.142 0.791129 24.1171 0.671632 24.0698 0.560347C24.0226 0.449062 23.9538 0.348173 23.8675 0.263472C23.7813 0.178771 23.6791 0.111898 23.567 0.0666948C23.4548 0.021492 23.3349 -0.0011429 23.214 4.44011e-05ZM18.571 12.824H20.429V16.47H18.571V12.824ZM24.799 8.53203C24.5912 8.32989 24.4261 8.08813 24.3134 7.82103C24.2007 7.55393 24.1428 7.26693 24.143 6.97703V5.53007H20.429V6.97703C20.429 7.26699 20.3709 7.55399 20.2581 7.82109C20.1452 8.08819 19.9799 8.32994 19.772 8.53203C19.1033 9.1903 18.691 10.0653 18.609 11H21.357C21.4779 10.9989 21.5979 11.0215 21.71 11.0667C21.8221 11.1119 21.9243 11.1788 22.0105 11.2635C22.0968 11.3482 22.1655 11.4491 22.2128 11.5603C22.2601 11.6716 22.285 11.7911 22.286 11.912V17.381C22.285 17.5019 22.2601 17.6215 22.2128 17.7328C22.1655 17.8441 22.0968 17.9449 22.0105 18.0296C21.9243 18.1143 21.8221 18.1812 21.71 18.2264C21.5979 18.2716 21.4779 18.2943 21.357 18.2931H18.571V22H26V11.376C26.0009 10.8454 25.8951 10.3201 25.689 9.83122C25.4828 9.34232 25.1805 8.89984 24.8 8.53007L24.799 8.53203ZM15.514 8.53203C15.3059 8.33008 15.1405 8.0884 15.0276 7.82127C14.9148 7.55414 14.8567 7.26703 14.857 6.97703V5.53007H11.143V6.97703C11.1433 7.26703 11.0852 7.55414 10.9724 7.82127C10.8595 8.0884 10.6941 8.33008 10.486 8.53203C9.81765 9.19055 9.4054 10.0654 9.323 11H12.071C12.1919 10.9989 12.3119 11.0215 12.424 11.0667C12.5361 11.1119 12.6383 11.1788 12.7245 11.2635C12.8108 11.3482 12.8796 11.4491 12.9268 11.5603C12.9741 11.6716 12.999 11.7911 13 11.912V17.381C12.999 17.5019 12.9741 17.6215 12.9268 17.7328C12.8796 17.8441 12.8108 17.9449 12.7245 18.0296C12.6383 18.1143 12.5361 18.1812 12.424 18.2264C12.3119 18.2716 12.1919 18.2943 12.071 18.2931H9.286V22H16.714V11.376C16.7147 10.8455 16.6089 10.3202 16.4028 9.83128C16.1966 9.3424 15.8944 8.89994 15.514 8.53007V8.53203ZM6.228 8.53203C6.01988 8.33008 5.85449 8.0884 5.74162 7.82127C5.62876 7.55414 5.57073 7.26703 5.571 6.97703V5.53007H1.85699V6.97703C1.85722 7.26693 1.79928 7.55393 1.6866 7.82103C1.57392 8.08813 1.4088 8.32989 1.201 8.53203C0.532363 9.19045 0.119763 10.0653 0.0370026 11H2.786C2.90681 10.999 3.02666 11.0217 3.13869 11.067C3.25071 11.1123 3.35271 11.1792 3.43889 11.2638C3.52506 11.3485 3.59371 11.4494 3.64091 11.5606C3.68812 11.6718 3.71296 11.7912 3.714 11.912V17.381C3.71296 17.5018 3.68812 17.6213 3.64091 17.7325C3.59371 17.8437 3.52506 17.9446 3.43889 18.0293C3.35271 18.114 3.25071 18.1808 3.13869 18.2261C3.02666 18.2713 2.90681 18.2941 2.786 18.2931H0V22H7.42799V11.376C7.42872 10.8455 7.32288 10.3202 7.11674 9.83128C6.91061 9.3424 6.60839 8.89994 6.228 8.53007V8.53203Z" fill="#3084C2"/>
</g>
<defs>
<clipPath id="clip0">
<rect width="26" height="22" fill="white"/>
</clipPath>
</defs>
</svg>
