<svg width="238" height="238" viewBox="0 0 238 238" fill="none" xmlns="http://www.w3.org/2000/svg">
<path d="M218.839 143.186H220.856H231.183H232.958C235.737 143.186 238 145.449 238 148.228V158.309C238 161.093 235.737 163.355 232.958 163.355H231.207H218.839C216.06 163.355 213.797 161.093 213.797 158.313V150.245V148.228C213.797 145.449 216.06 143.186 218.839 143.186Z" fill="#3084C2"/>
<path d="M26.7001 163.355C27.6683 161.911 28.2374 160.177 28.2374 158.313V150.245V148.228C28.2374 143.227 24.1632 139.152 19.1609 139.152H8.06767V135.118C8.06767 133.574 7.91032 131.972 8.30179 130.495C8.99152 127.898 9.93939 125.417 11.2264 123.057C13.7799 118.382 17.4061 114.328 21.5655 111.024C25.813 107.652 30.6014 105.026 35.5669 102.872C38.0478 101.794 40.5852 100.871 43.1222 99.9389C44.4615 99.4466 45.8536 99.0754 47.2529 98.773C47.9548 98.6198 48.6568 98.4865 49.3667 98.3773C49.6612 98.3334 51.0933 98.3452 51.2507 98.1474L90.3271 52.8829C90.3271 52.8829 178.407 44.1858 209.593 80.116C215.89 87.3688 220.303 94.4402 223.462 101.306C228.573 97.8128 234.426 88.5508 234.426 88.5508L237.81 96.2879L228.201 114.497C230.969 123.996 231.287 132.076 231.235 139.152H218.838C213.837 139.152 209.762 143.226 209.762 148.228V158.309C209.762 160.177 210.331 161.911 211.299 163.351H197.289C195.256 176.204 184.159 186.042 170.734 186.042C157.309 186.042 146.212 176.204 144.179 163.351H135.873H98.4429C96.4101 176.204 85.3126 186.042 71.8878 186.042C58.463 186.042 47.3659 176.204 45.3326 163.351H36.9345C33.6589 163.355 30.3795 163.355 26.7001 163.355ZM205.729 92.5571C205.729 92.5571 189.593 72.2663 145.22 66.6431V102.847H205.729V92.5571ZM170.735 175.013C178.036 175.013 184.119 170.064 185.979 163.355C186.354 162 186.62 160.6 186.62 159.128C186.62 150.354 179.509 143.243 170.735 143.243C161.961 143.243 154.85 150.354 154.85 159.128C154.85 160.6 155.116 162 155.491 163.355C157.35 170.064 163.437 175.013 170.735 175.013ZM21.3031 116.32C21.2946 116.329 21.2908 116.333 21.2828 116.341C14.8366 123.222 12.5734 129.632 12.1258 131.08H29.8509H32.1057C31.8319 123.158 29.2135 119.652 21.3031 116.32ZM133.119 65.7598C100.847 62.8954 97.3179 64.1302 97.3179 64.1302L76.6441 87.9341L81.5611 102.848H133.119V65.7598ZM71.8882 175.013C79.1899 175.013 85.2729 170.064 87.1324 163.355C87.5079 162 87.7741 160.6 87.7741 159.128C87.7741 150.354 80.6626 143.243 71.8886 143.243C63.1151 143.243 56.0032 150.354 56.0032 159.128C56.0032 160.6 56.2698 162 56.6448 163.355C58.5035 170.064 64.5911 175.013 71.8882 175.013Z" fill="#3084C2"/>
<path d="M7.05966 143.186H8.06829H19.1615C21.9411 143.186 24.2039 145.449 24.2039 148.228V158.309C24.2039 161.088 21.9411 163.351 19.1615 163.351H8.06829H5.04282C2.26328 163.351 0.00050354 161.088 0.00050354 158.309V150.245C8.01086e-05 146.349 3.16308 143.186 7.05966 143.186Z" fill="#3084C2"/>
</svg>
