<svg width="158" height="158" viewBox="0 0 158 158" fill="none" xmlns="http://www.w3.org/2000/svg">
<path d="M114.907 28.2946L100.231 28.0321L99.5529 35.6774H76.7396L67.3693 12.7421H47.1453V0C47.1453 0 84.2064 0 88.9591 0C93.7118 0 96.6348 3.08098 96.6348 3.08098C96.6348 3.08098 111.235 17.449 115.422 21.205C122.501 27.5532 114.907 28.2946 114.907 28.2946Z" fill="#3084C2"/>
<path d="M44.5967 11.3096L36.9516 9.2378V4.30173L44.5967 1.59277V11.3096Z" fill="#3084C2"/>
<path d="M72.6293 38.2261H103.21V48.4196H72.6293V38.2261Z" fill="#3084C2"/>
<path d="M59.887 113.085C59.887 89.8306 72.4508 84.3085 73.8062 83.0341C75.1616 81.7597 76.0488 80.5772 76.0488 78.029C76.0488 75.4807 72.6288 73.5846 72.6288 70.9292C72.6288 66.258 75.9086 65.5164 75.9086 63.2866C75.9086 59.4615 73.0493 59.5812 73.0493 56.3957C73.0493 52.0302 75.9009 50.9677 75.9009 50.9677C75.9009 50.9677 97.06 50.8097 101.813 50.9677C121.366 82.504 121.048 114.677 121.048 114.677C121.048 114.677 121.048 142.072 121.048 149.717C121.048 157.362 117.34 158 117.34 158C117.34 158 66.8261 158 63.0237 158C59.2213 158 59.8867 152.903 59.8867 152.903C59.8867 152.903 59.887 144.621 59.887 113.085Z" fill="#3084C2"/>
<path d="M38.2183 43.3224C49.8057 31.3911 49.9866 15.29 49.9866 15.29H63.9287C61.0313 32.2801 50.3688 41.4263 43.2104 45.7127C39.4871 47.9424 38.2386 47.6189 37.6446 46.8567C36.1362 44.9153 38.2183 43.3224 38.2183 43.3224Z" fill="#3084C2"/>
</svg>
