<svg width="158" height="158" viewBox="0 0 158 158" fill="none" xmlns="http://www.w3.org/2000/svg">
<g clip-path="url(#clip0)">
<path d="M149.987 0H8.01447C3.58797 0 0.000976562 3.58817 0.000976562 8.01428V149.986C0.000976562 154.412 3.58797 158 8.01447 158H149.987C154.413 158 158 154.412 158 149.986V8.01389C158 3.58817 154.413 0 149.987 0ZM128.025 89.8239C128.025 92.3863 125.949 94.4636 123.386 94.4636H94.4645V123.386C94.4645 125.948 92.3873 128.025 89.8249 128.025H68.1751C65.6135 128.025 63.5366 125.948 63.5366 123.386V94.4632H34.6149C32.0526 94.4632 29.9749 92.3863 29.9749 89.8247V68.1749C29.9749 65.6129 32.0526 63.5357 34.6149 63.536H63.537V34.6136C63.537 32.0516 65.6139 29.9743 68.1755 29.9743H89.8253C92.3877 29.9743 94.4649 32.0516 94.4649 34.6136V63.536H123.387C125.949 63.536 128.026 65.6133 128.026 68.1753V89.8239H128.025Z" fill="#3084C2"/>
</g>
<defs>
<clipPath id="clip0">
<rect width="158" height="158" fill="white"/>
</clipPath>
</defs>
</svg>
