<svg width="158" height="158" viewBox="0 0 158 158" fill="none" xmlns="http://www.w3.org/2000/svg">
<g clip-path="url(#clip0)">
<path d="M127.477 139.592C131.663 139.592 135.055 142.987 135.055 147.169C135.055 151.354 131.663 154.749 127.477 154.749C123.295 154.749 119.9 151.354 119.9 147.169C119.9 142.987 123.292 139.592 127.477 139.592ZM94.61 139.592C98.7952 139.592 102.187 142.987 102.187 147.169C102.187 151.354 98.7952 154.749 94.61 154.749C90.4248 154.749 87.0328 151.354 87.0328 147.169C87.0328 142.987 90.4248 139.592 94.61 139.592ZM22.221 0L42.4058 1.01818L42.0251 8.57812L21.8402 7.55993L22.221 0ZM63.6117 66.8943L68.0709 67.1193L68.1892 64.731C66.7037 64.7368 65.2125 64.7051 63.7271 64.6041L63.6117 66.8943ZM44.4681 94.1054C44.3931 92.6344 44.3239 91.1605 44.2547 89.6924L21.5143 88.4694C21.6066 90.3356 21.696 93.4276 21.7854 95.2938C21.9268 98.1955 22.9507 100.523 24.4766 102.283C24.4939 102.306 24.4967 102.335 24.5141 102.352C26.3168 105.124 26.1697 108.072 27.6176 111.042C24.9525 123.696 16.5561 136.338 13.3083 148.854C10.92 158.046 25.114 161.946 27.4965 152.759C30.7731 140.14 40.8079 127.397 43.4932 114.636C43.6288 113.982 43.6807 113.373 43.6692 112.773C52.504 121.899 58.44 136.742 59.5505 149.707C60.3581 159.087 75.0799 159.16 74.2665 149.707C72.4061 128.089 61.3821 107.111 44.4681 94.1054ZM30.9664 27.2284C37.3235 27.5515 42.7317 22.6596 43.0548 16.3053C43.1615 14.1219 42.6452 12.0538 41.6761 10.2597L22.0248 9.26748C20.8769 10.9491 20.1558 12.9566 20.0433 15.1401C19.7202 21.5001 24.615 26.9083 30.9664 27.2284ZM118.317 27.7649C118.594 27.1362 118.746 26.4439 118.746 25.7142C118.746 22.8759 116.445 20.5742 113.609 20.5742H113.056V16.9486C113.056 16.2621 112.508 15.7054 111.81 15.7054C111.129 15.7054 110.563 16.2592 110.563 16.9486V20.5742H110.232C107.399 20.5742 105.092 22.8759 105.092 25.7142C105.092 26.4439 105.253 27.1362 105.522 27.7649C91.7862 29.908 80.9843 40.935 79.1758 54.7713C77.947 51.786 75.0511 49.3833 71.0043 49.8967C70.0467 50.0179 69.8881 50.1159 68.9305 50.1563L69.017 48.4776L64.5549 48.2526L64.4597 50.1217C65.9538 50.2255 67.4421 50.2255 68.9276 50.1592L68.1892 64.731C70.4736 64.7137 71.9389 64.5493 74.1916 64.2638C76.4673 63.9753 77.9874 62.9052 78.8758 61.4803V133.933H144.96V58.8642C144.962 43.1444 133.385 30.1157 118.317 27.7649ZM139.231 128.196H84.6099V58.8642C84.6099 44.6443 96.1733 33.0808 110.39 33.0808H113.451C127.674 33.0808 139.231 44.6443 139.231 58.8642V128.196ZM43.5307 41.5897C43.1529 35.4114 39.5618 29.9686 32.8326 29.5821C27.2052 29.2619 20.4442 34.0875 20.8221 40.2831C21.7393 55.3395 21.7047 70.419 21.6556 85.4927L44.3672 86.6349C44.3931 77.8347 44.4104 69.0374 44.2403 60.2401C50.5051 62.6427 57.1103 64.1484 63.7299 64.5955L64.4597 50.1159C57.3093 49.6256 50.1388 47.2662 43.649 43.8338C43.6057 43.0896 43.5769 42.3397 43.5307 41.5897ZM126.148 79.8278H126.142H116.947V84.8495H107.344V106.055H134.659V84.8437H126.148V79.8278ZM124.515 84.8524H118.565V81.4517H124.515V84.8524ZM88.5788 63.6494H105.008V106.055H88.5788V63.6494ZM89.8277 111.464H134.657V123.367H89.8277V111.464Z" fill="#3084C2"/>
</g>
<defs>
<clipPath id="clip0">
<rect width="158" height="158" fill="white"/>
</clipPath>
</defs>
</svg>
