<svg width="192" height="192" viewBox="0 0 192 192" fill="none" xmlns="http://www.w3.org/2000/svg">
<g clip-path="url(#clip0)">
<path d="M67.2037 47.9782C68.9708 47.9782 70.4033 46.5458 70.4033 44.7787C70.4033 43.0116 68.9708 41.5791 67.2037 41.5791C65.4366 41.5791 64.0042 43.0116 64.0042 44.7787C64.0042 46.5458 65.4366 47.9782 67.2037 47.9782Z" fill="#3084C2"/>
<path d="M67.2037 60.7761C68.9708 60.7761 70.4033 59.3436 70.4033 57.5765C70.4033 55.8095 68.9708 54.377 67.2037 54.377C65.4366 54.377 64.0042 55.8095 64.0042 57.5765C64.0042 59.3436 65.4366 60.7761 67.2037 60.7761Z" fill="#3084C2"/>
<path d="M76.8024 54.3772C78.5694 54.3772 80.0019 52.9447 80.0019 51.1776C80.0019 49.4105 78.5694 47.978 76.8024 47.978C75.0353 47.978 73.6028 49.4105 73.6028 51.1776C73.6028 52.9447 75.0353 54.3772 76.8024 54.3772Z" fill="#3084C2"/>
<path d="M44.8068 102.371C46.5738 102.371 48.0063 100.938 48.0063 99.1713C48.0063 97.4042 46.5738 95.9717 44.8068 95.9717C43.0397 95.9717 41.6072 97.4042 41.6072 99.1713C41.6072 100.938 43.0397 102.371 44.8068 102.371Z" fill="#3084C2"/>
<path d="M44.8068 115.169C46.5738 115.169 48.0063 113.737 48.0063 111.97C48.0063 110.203 46.5738 108.77 44.8068 108.77C43.0397 108.77 41.6072 110.203 41.6072 111.97C41.6072 113.737 43.0397 115.169 44.8068 115.169Z" fill="#3084C2"/>
<path d="M54.4054 108.77C56.1725 108.77 57.605 107.337 57.605 105.57C57.605 103.803 56.1725 102.371 54.4054 102.371C52.6383 102.371 51.2058 103.803 51.2058 105.57C51.2058 107.337 52.6383 108.77 54.4054 108.77Z" fill="#3084C2"/>
<path d="M124.796 63.9758C126.563 63.9758 127.996 62.5433 127.996 60.7762C127.996 59.0092 126.563 57.5767 124.796 57.5767C123.029 57.5767 121.596 59.0092 121.596 60.7762C121.596 62.5433 123.029 63.9758 124.796 63.9758Z" fill="#3084C2"/>
<path d="M124.796 76.7741C126.563 76.7741 127.996 75.3416 127.996 73.5746C127.996 71.8075 126.563 70.375 124.796 70.375C123.029 70.375 121.596 71.8075 121.596 73.5746C121.596 75.3416 123.029 76.7741 124.796 76.7741Z" fill="#3084C2"/>
<path d="M134.395 70.3752C136.162 70.3752 137.594 68.9427 137.594 67.1756C137.594 65.4086 136.162 63.9761 134.395 63.9761C132.628 63.9761 131.195 65.4086 131.195 67.1756C131.195 68.9427 132.628 70.3752 134.395 70.3752Z" fill="#3084C2"/>
<path d="M80.8985 142.596C82.6656 142.596 84.0981 141.164 84.0981 139.397C84.0981 137.63 82.6656 136.197 80.8985 136.197C79.1315 136.197 77.699 137.63 77.699 139.397C77.699 141.164 79.1315 142.596 80.8985 142.596Z" fill="#3084C2"/>
<path d="M86.0462 154.308C87.8133 154.308 89.2458 152.876 89.2458 151.109C89.2458 149.342 87.8133 147.909 86.0462 147.909C84.2792 147.909 82.8467 149.342 82.8467 151.109C82.8467 152.876 84.2792 154.308 86.0462 154.308Z" fill="#3084C2"/>
<path d="M92.2596 144.59C94.0267 144.59 95.4592 143.158 95.4592 141.39C95.4592 139.623 94.0267 138.191 92.2596 138.191C90.4926 138.191 89.0601 139.623 89.0601 141.39C89.0601 143.158 90.4926 144.59 92.2596 144.59Z" fill="#3084C2"/>
<path d="M137.882 118.522C139.649 118.522 141.082 117.089 141.082 115.322C141.082 113.555 139.649 112.123 137.882 112.123C136.115 112.123 134.682 113.555 134.682 115.322C134.682 117.089 136.115 118.522 137.882 118.522Z" fill="#3084C2"/>
<path d="M127.305 125.724C129.072 125.724 130.504 124.291 130.504 122.524C130.504 120.757 129.072 119.325 127.305 119.325C125.538 119.325 124.105 120.757 124.105 122.524C124.105 124.291 125.538 125.724 127.305 125.724Z" fill="#3084C2"/>
<path d="M137.994 130.057C139.761 130.057 141.194 128.625 141.194 126.858C141.194 125.091 139.761 123.658 137.994 123.658C136.227 123.658 134.795 125.091 134.795 126.858C134.795 128.625 136.227 130.057 137.994 130.057Z" fill="#3084C2"/>
<path d="M88.8429 88.8513C90.61 88.8513 92.0425 87.4188 92.0425 85.6517C92.0425 83.8846 90.61 82.4521 88.8429 82.4521C87.0758 82.4521 85.6433 83.8846 85.6433 85.6517C85.6433 87.4188 87.0758 88.8513 88.8429 88.8513Z" fill="#3084C2"/>
<path d="M84.3732 100.843C86.1402 100.843 87.5727 99.411 87.5727 97.6439C87.5727 95.8768 86.1402 94.4443 84.3732 94.4443C82.6061 94.4443 81.1736 95.8768 81.1736 97.6439C81.1736 99.411 82.6061 100.843 84.3732 100.843Z" fill="#3084C2"/>
<path d="M95.6 98.2024C97.367 98.2024 98.7995 96.7699 98.7995 95.0028C98.7995 93.2357 97.367 91.8032 95.6 91.8032C93.8329 91.8032 92.4004 93.2357 92.4004 95.0028C92.4004 96.7699 93.8329 98.2024 95.6 98.2024Z" fill="#3084C2"/>
<path d="M95.9998 15.9824C51.8937 15.9824 16.0105 51.8656 16.0105 95.9717C16.0105 140.078 51.8937 175.961 95.9998 175.961C140.106 175.961 175.989 140.078 175.989 95.9717C175.989 51.8656 140.106 15.9824 95.9998 15.9824ZM127.996 47.9782C138.583 47.9782 147.193 56.5882 147.193 67.1756C147.193 77.763 138.583 86.373 127.996 86.373C117.408 86.373 108.798 77.763 108.798 67.1756C108.798 56.5882 117.408 47.9782 127.996 47.9782ZM120.87 104.991C121.19 106.729 120.041 108.396 118.301 108.716C118.106 108.754 117.911 108.77 117.719 108.77C116.205 108.77 114.858 107.692 114.577 106.15C113.802 101.945 114.711 97.6899 117.136 94.1768C119.561 90.6573 123.212 88.296 127.416 87.5249C129.163 87.1857 130.824 88.3568 131.141 90.0941C131.461 91.8315 130.309 93.4985 128.571 93.8184C126.047 94.2856 123.855 95.6998 122.403 97.8083C120.95 99.9136 120.406 102.467 120.87 104.991ZM111.591 116.571C109.505 120.301 106.091 122.999 101.983 124.16C100.537 124.57 99.0682 124.771 97.606 124.771C94.9088 124.771 92.2403 124.08 89.8183 122.727C88.2761 121.863 87.7225 119.914 88.5864 118.372C89.4503 116.833 91.3956 116.283 92.941 117.14C95.1839 118.398 97.7788 118.698 100.239 118.004C102.706 117.303 104.754 115.684 106.005 113.445C106.866 111.906 108.811 111.352 110.36 112.213C111.902 113.08 112.452 115.028 111.591 116.571ZM95.9998 51.1777C101.292 51.1777 105.599 46.8711 105.599 41.579C105.599 39.8096 107.032 38.3794 108.798 38.3794C110.564 38.3794 111.998 39.8096 111.998 41.579C111.998 50.4002 104.821 57.5769 95.9998 57.5769C94.2337 57.5769 92.8003 56.1467 92.8003 54.3773C92.8003 52.6079 94.2337 51.1777 95.9998 51.1777ZM96.3134 74.781C101.116 76.5727 104.936 80.1275 107.067 84.7924C109.198 89.4542 109.387 94.6695 107.595 99.4753C104.808 106.949 97.5804 111.97 89.6039 111.97C87.3162 111.97 85.0605 111.56 82.8976 110.754C78.095 108.962 74.2747 105.407 72.1438 100.742C70.0129 96.0805 69.8241 90.8652 71.6159 86.0595C74.4027 78.5853 81.6305 73.5651 89.6071 73.5651C91.8948 73.5651 94.1505 73.9747 96.3134 74.781ZM70.4032 31.9803C80.9906 31.9803 89.6007 40.5903 89.6007 51.1777C89.6007 61.7651 80.9906 70.3752 70.4032 70.3752C59.8159 70.3752 51.2058 61.7651 51.2058 51.1777C51.2058 40.5903 59.8159 31.9803 70.4032 31.9803ZM43.6036 67.342C45.2834 66.7789 47.0912 67.6875 47.6511 69.3641C49.3213 74.3842 54.7765 77.1039 59.7935 75.4337C61.4732 74.8866 63.281 75.7824 63.8409 77.4622C64.3976 79.1356 63.4922 80.9498 61.8156 81.5097C60.1454 82.0664 58.4464 82.3288 56.7731 82.3288C50.07 82.3288 43.8116 78.0861 41.5783 71.3894C41.0216 69.7097 41.927 67.8987 43.6036 67.342ZM28.8088 105.57C28.8088 94.9831 37.4188 86.373 48.0062 86.373C58.5936 86.373 67.2037 94.9831 67.2037 105.57C67.2037 116.158 58.5936 124.768 48.0062 124.768C37.4188 124.768 28.8088 116.158 28.8088 105.57ZM62.7851 132.367C61.518 132.367 60.3214 131.615 59.8191 130.367C59.1535 128.729 59.947 126.864 61.582 126.201C66.487 124.214 68.8611 118.606 66.8773 113.701C66.2118 112.062 67.0053 110.197 68.6403 109.535C70.2785 108.869 72.1438 109.66 72.8061 111.301C76.1177 119.476 72.1598 128.822 63.9849 132.133C63.5914 132.293 63.185 132.367 62.7851 132.367ZM94.1249 161.537C91.6676 162.619 89.0728 163.166 86.4075 163.166C78.7925 163.166 71.891 158.664 68.8259 151.692C64.5672 142.004 68.9826 130.652 78.6741 126.393C81.1314 125.312 83.7263 124.765 86.3915 124.765C94.0065 124.765 100.908 129.267 103.973 136.238C108.235 145.927 103.816 157.279 94.1249 161.537ZM129.007 149.536C127.333 150.096 125.631 150.361 123.958 150.361C117.258 150.361 111.003 146.119 108.769 139.422C108.209 137.745 109.115 135.931 110.791 135.374C112.474 134.808 114.282 135.72 114.839 137.397C115.648 139.832 117.36 141.806 119.651 142.948C121.942 144.093 124.543 144.273 126.981 143.466C128.661 142.9 130.469 143.812 131.029 145.488C131.589 147.168 130.683 148.979 129.007 149.536ZM153.253 125.149C152.296 130.188 149.436 134.549 145.196 137.438C141.997 139.617 138.266 140.769 134.408 140.769C128.04 140.769 122.102 137.63 118.525 132.37C115.639 128.134 114.577 123.024 115.533 117.988C116.49 112.949 119.35 108.588 123.59 105.698C126.789 103.52 130.52 102.368 134.379 102.368C140.746 102.368 146.684 105.506 150.261 110.767C153.147 115.003 154.21 120.113 153.253 125.149ZM157.198 87.8512C158.059 86.3122 160.004 85.7587 161.553 86.6194C163.095 87.4833 163.648 89.4318 162.785 90.974C160.698 94.7047 157.284 97.402 153.176 98.5634C151.73 98.973 150.261 99.1745 148.799 99.1745C146.102 99.1745 143.433 98.4834 141.011 97.13C139.469 96.2661 138.916 94.3176 139.78 92.7754C140.643 91.2364 142.586 90.6797 144.134 91.5435C146.377 92.7978 148.969 93.1017 151.432 92.4074C153.899 91.7099 155.947 90.0909 157.198 87.8512Z" fill="#3084C2"/>
<path d="M190.512 90.6444C193.446 83.2566 191.971 74.9761 186.657 69.0313C184.18 66.2605 182.868 62.6993 182.961 59.0102C183.163 51.0817 178.914 43.8059 171.875 40.0176C168.582 38.245 166.109 35.3398 164.916 31.833C162.362 24.3268 155.861 18.9324 147.945 17.7549C144.227 17.2014 140.89 15.3009 138.548 12.402C133.614 6.29085 125.503 3.36644 117.754 4.91824C114.094 5.64774 110.225 4.97263 107.055 3.05288C100.39 -0.96578 91.6006 -0.96898 84.9327 3.05608C82.6002 4.4639 79.9221 5.2094 77.1833 5.2094C76.1946 5.2094 75.2028 5.11341 74.2365 4.91824C66.4807 3.36644 58.3762 6.29085 53.4425 12.402C51.1036 15.3009 47.7664 17.2014 44.0453 17.7549C36.1328 18.9324 29.6312 24.33 27.078 31.833C25.8845 35.3398 23.4113 38.245 20.1189 40.0176C13.0798 43.8059 8.83081 51.0817 9.03238 59.0102C9.12517 62.6993 7.81335 66.2605 5.33688 69.0313C0.0255842 74.9729 -1.45262 83.2566 1.48139 90.6444C2.84441 94.0807 2.84441 97.8626 1.48139 101.299C-1.45262 108.687 0.0223845 116.967 5.33688 122.912C7.81335 125.683 9.12517 129.244 9.03238 132.933C8.83081 140.862 13.0798 148.138 20.1189 151.926C23.4113 153.698 25.8845 156.604 27.078 160.11C29.6312 167.617 36.1328 173.011 44.0485 174.188C47.7664 174.742 51.1036 176.643 53.4457 179.541C58.3794 185.649 66.4807 188.555 74.2397 187.025C77.8968 186.292 81.7651 186.968 84.9391 188.891C88.273 190.9 92.0965 191.962 96 191.962C99.9035 191.962 103.727 190.9 107.061 188.887C110.232 186.968 114.1 186.289 117.76 187.025C125.51 188.558 133.621 185.649 138.554 179.541C140.893 176.643 144.23 174.742 147.951 174.188C155.864 173.011 162.366 167.613 164.919 160.11C166.112 156.604 168.586 153.698 171.878 151.926C178.917 148.138 183.166 140.862 182.964 132.933C182.872 129.244 184.183 125.683 186.66 122.912C191.971 116.971 193.449 108.687 190.515 101.299C189.149 97.8626 189.149 94.0807 190.512 90.6444ZM184.567 103.66C186.599 108.78 185.572 114.526 181.889 118.65C178.325 122.637 176.434 127.769 176.568 133.096C176.706 138.596 173.75 143.652 168.845 146.288C164.122 148.829 160.577 153.007 158.859 158.047C157.08 163.275 152.54 167.034 147.008 167.857C141.696 168.647 136.926 171.37 133.576 175.523C130.127 179.788 124.454 181.829 119.015 180.751C113.806 179.717 108.283 180.674 103.756 183.41C99.0876 186.228 92.9156 186.225 88.2506 183.413C84.9199 181.397 81.0964 180.335 77.1897 180.335C75.7819 180.335 74.3709 180.476 72.9887 180.751C67.5462 181.829 61.8733 179.788 58.4274 175.523C55.0742 171.37 50.3037 168.65 44.9956 167.857C39.4635 167.031 34.9201 163.272 33.1412 158.047C31.423 153.007 27.8779 148.829 23.1553 146.288C18.2536 143.652 15.2939 138.596 15.4315 133.096C15.5659 127.769 13.675 122.637 10.1106 118.65C6.42473 114.526 5.39767 108.78 7.4326 103.66C9.40353 98.7009 9.40353 93.2393 7.4326 88.2799C5.40087 83.1606 6.42793 77.4142 10.1106 73.2899C13.675 69.3033 15.5659 64.1711 15.4315 58.8439C15.2939 53.3438 18.2504 48.2885 23.1553 45.652C27.8779 43.1115 31.423 38.9329 33.1412 33.8936C34.9201 28.6655 39.4603 24.906 44.9924 24.0837C50.3037 23.2934 55.0742 20.5706 58.4242 16.4175C61.8733 12.1493 67.543 10.0983 72.9855 11.1894C74.3645 11.4646 75.7787 11.6053 77.1865 11.6053C81.09 11.6053 84.9167 10.5431 88.2442 8.53055C92.9124 5.71173 99.0844 5.71493 103.749 8.52735C108.28 11.2662 113.799 12.2261 119.011 11.1894C124.441 10.0951 130.123 12.1493 133.573 16.4175C136.926 20.5706 141.696 23.2902 147.004 24.0837C152.536 24.9092 157.08 28.6687 158.859 33.8936C160.577 38.9329 164.122 43.1115 168.845 45.652C173.746 48.2885 176.706 53.3438 176.568 58.8439C176.434 64.1711 178.325 69.3033 181.889 73.2899C185.575 77.4142 186.602 83.1606 184.567 88.2799C182.596 93.2393 182.596 98.7041 184.567 103.66Z" fill="#3084C2"/>
</g>
<defs>
<clipPath id="clip0">
<rect width="192" height="192" fill="white"/>
</clipPath>
</defs>
</svg>
