<svg width="145" height="158" viewBox="0 0 145 158" fill="none" xmlns="http://www.w3.org/2000/svg">
<path d="M0 0V41.6703H144.11V0H0ZM45.4321 25.8703H14.0637V15.4527H45.4321V25.8703ZM109.732 26.044H95.8418V15.6264H109.732V26.044ZM130.567 26.044H116.677V15.6264H130.567V26.044Z" fill="#3084C2"/>
<path d="M72.2287 133.518C88.0256 133.518 100.877 120.667 100.877 104.87C100.877 89.0732 88.0256 76.2217 72.2287 76.2217C56.4318 76.2217 43.5803 89.0732 43.5803 104.87C43.5803 120.667 56.4318 133.518 72.2287 133.518Z" fill="#3084C2"/>
<path d="M0 158H144.11V52.0879H0V158ZM72.2286 65.8044C93.7697 65.8044 111.295 83.3292 111.295 104.87C111.295 126.411 93.7697 143.936 72.2286 143.936C50.6874 143.936 33.1626 126.411 33.1626 104.87C33.1626 83.3292 50.6874 65.8044 72.2286 65.8044Z" fill="#3084C2"/>
</svg>
