<svg width="255" height="255" viewBox="0 0 255 255" fill="none" xmlns="http://www.w3.org/2000/svg">
<g clip-path="url(#clip0)">
<path d="M126.514 48.2822C83.086 48.2822 47.776 83.6012 47.776 127.02C47.776 170.409 83.085 205.738 126.514 205.738C169.903 205.738 205.252 170.409 205.252 127.03C205.252 83.6012 169.932 48.2822 126.514 48.2822ZM126.514 198.898C86.867 198.898 54.635 166.666 54.635 127.029C54.635 87.3922 86.857 55.1012 126.514 55.1012C166.171 55.1012 198.393 87.3912 198.393 127.029C198.393 166.667 166.171 198.898 126.514 198.898ZM193.352 127.029C193.352 163.911 163.426 193.837 126.524 193.837C89.612 193.837 59.686 163.901 59.686 127.029C59.686 90.1082 89.622 60.1822 126.524 60.1822C163.426 60.1722 193.352 90.1082 193.352 127.029ZM41.308 56.7332L41.328 95.5692H41.269C40.878 107.958 27.298 112.686 27.298 112.686V137.61H27.318L27.298 194.922C27.298 194.922 21.807 202.015 14.694 194.922V112.696H14.86C6.575 109.169 0.449 107.948 0.058 95.5792H0V56.7332L6.224 56.7042L9.252 94.2802H16.6L17.528 55.9322H23.517L24.24 94.2802H32.857L34.84 56.7332H41.308ZM252.1 122.857H236.868V199.895H219.272V54.1442H236.868C236.878 54.1342 260.844 84.5482 252.1 122.857Z" fill="#3084C2"/>
</g>
<defs>
<clipPath id="clip0">
<rect width="254.019" height="254.019" fill="white"/>
</clipPath>
</defs>
</svg>
