<svg width="158" height="158" viewBox="0 0 158 158" fill="none" xmlns="http://www.w3.org/2000/svg">
<path d="M35.3229 34.4007C36.4122 36.1627 38.2974 37.132 40.2273 37.132C41.2608 37.132 42.3076 36.8536 43.2509 36.2704C45.9566 34.5972 46.7938 31.0478 45.1207 28.3421C43.8647 26.3113 44.4736 23.4608 45.6255 19.0082C46.8636 14.2238 48.4041 8.26921 45.1762 2.82382C43.5546 0.087543 40.0228 -0.81601 37.2846 0.805633C34.5484 2.42759 33.6448 5.96064 35.2668 8.69722C36.0515 10.0217 35.2492 13.123 34.4734 16.1228C33.0995 21.4328 31.3896 28.0406 35.3229 34.4007Z" fill="#3084C2"/>
<path d="M53.7628 34.4008C54.8524 36.1628 56.7376 37.1324 58.6675 37.1324C59.701 37.1324 60.7471 36.8544 61.6911 36.2708C64.3968 34.5983 65.234 31.0486 63.5611 28.3431C62.3052 26.3117 62.9137 23.4619 64.0657 19.0089C65.3038 14.2245 66.8439 8.27025 63.6167 2.82486C61.9947 0.0882806 58.4608 -0.814964 55.7251 0.80668C52.9885 2.42863 52.085 5.96169 53.7066 8.69796C54.492 10.0224 53.6893 13.1241 52.9132 16.1236C51.5403 21.4329 49.8307 28.0407 53.7628 34.4008Z" fill="#3084C2"/>
<path d="M5.87158 98.4863L11.0914 132.75C11.1207 132.941 11.1352 133.135 11.1352 133.328C11.1352 139.891 15.9363 145.351 22.2102 146.388L18.2069 98.4863H5.87158Z" fill="#3084C2"/>
<path d="M29.9316 146.568H45.616V143.936C44.0162 141.192 42.6838 138.25 41.6731 135.131C40.353 131.054 41.0695 126.551 43.5895 123.086C44.1841 122.269 44.867 121.532 45.6157 120.879V98.4863H25.9131L29.9316 146.568Z" fill="#3084C2"/>
<path d="M54.459 117.551H71.4059L72.9992 98.4863H53.2957V117.608C53.6811 117.574 54.0687 117.551 54.459 117.551Z" fill="#3084C2"/>
<path d="M79.1125 117.551H90.136L93.0408 98.4863H80.7058L79.1125 117.551Z" fill="#3084C2"/>
<path d="M97.5751 68.7186L98.8289 60.4894C99.1483 58.391 98.5382 56.2636 97.1551 54.6536C95.7717 53.0437 93.7606 52.1201 91.6378 52.1201H84.5803L83.2114 68.4979H95.6606C96.3102 68.4979 96.952 68.5748 97.5751 68.7186Z" fill="#3084C2"/>
<path d="M3.17243 68.4983H15.7009L14.332 52.1201H7.27421C5.15142 52.1201 3.14033 53.0437 1.75692 54.6536C0.373817 56.2636 -0.236267 58.391 0.0831245 60.4894L1.33415 68.7013C1.93405 68.5686 2.54969 68.4983 3.17243 68.4983Z" fill="#3084C2"/>
<path d="M45.616 68.4983V52.1201H22.0381L23.407 68.4983H45.616Z" fill="#3084C2"/>
<path d="M53.2957 68.4983H75.5055L76.8741 52.1201H53.2957V68.4983Z" fill="#3084C2"/>
<path d="M156.267 48.0225C154.428 45.4266 150.834 44.8134 148.237 46.652C147.043 47.4991 119.595 67.5374 109.585 124.848H54.9773C53.1344 124.848 51.4029 125.73 50.3191 127.22C49.2351 128.711 48.9299 130.629 49.4974 132.383C54.4601 147.705 68.6189 158 84.7295 158C100.791 158 114.913 147.766 119.916 132.521C120.044 132.158 120.137 131.777 120.189 131.385C121.571 122.29 123.418 114.191 125.517 107.022C130.149 91.2057 136.007 79.9261 140.795 72.5215C141.73 71.0742 142.651 69.7324 143.547 68.4919C149.836 59.7779 154.862 56.0767 154.896 56.0523C157.492 54.2131 158.106 50.618 156.267 48.0225Z" fill="#3084C2"/>
<path d="M92.6097 93.9891C94.676 93.9891 96.4195 92.4533 96.6806 90.4039L98.3241 77.4919C98.6364 75.0398 96.7256 72.8701 94.2535 72.8701H4.65856C2.18675 72.8701 0.275648 75.0395 0.587941 77.4919L2.23149 90.4039C2.49225 92.4533 4.23641 93.9891 6.30211 93.9891H92.6097Z" fill="#3084C2"/>
</svg>
