<svg width="158" height="158" viewBox="0 0 158 158" fill="none" xmlns="http://www.w3.org/2000/svg">
<g clip-path="url(#clip0)">
<path d="M49.9885 51.6046C57.9763 52.1909 64.561 57.7783 66.642 65.2524C66.776 65.7342 67.2089 66.0711 67.7091 66.0711H82.1044C82.8962 66.0711 83.5571 66.6756 83.6278 67.4641L90.0716 139.456C90.1421 140.244 90.8032 140.849 91.5952 140.849H147.507C148.405 140.849 149.111 140.078 149.03 139.183L138.476 21.2448C138.406 20.4561 137.745 19.8516 136.953 19.8516H115.643C115.199 19.8516 114.831 19.51 114.796 19.0675C113.935 8.39699 105.027 0 94.1356 0C83.2441 0 74.3372 8.39699 73.4757 19.0678C73.44 19.5103 73.0722 19.8518 72.6284 19.8518H53.1251C52.3332 19.8518 51.6723 20.4561 51.6015 21.2448L48.9883 50.4245C48.9343 51.0282 49.3842 51.5602 49.9885 51.6046ZM94.1372 3.55392C103.01 3.55392 110.315 10.3132 111.22 18.9516C111.27 19.4318 110.898 19.852 110.415 19.852H77.8587C77.3758 19.852 77.0042 19.4318 77.0546 18.9516C77.9589 10.3132 85.2641 3.55392 94.1372 3.55392Z" fill="#3084C2"/>
<path d="M11.0811 158H85.6963C86.9404 158 87.9164 156.933 87.8056 155.694L80.259 71.3781C80.1613 70.2861 79.2462 69.4492 78.1498 69.4492H63.9001C63.3436 69.4492 62.8729 69.0313 62.8138 68.4781C61.9973 60.8597 55.5664 54.9209 47.7291 54.9209C39.893 54.9209 33.4609 60.8583 32.6443 68.4781C32.5849 69.0315 32.1145 69.4492 31.558 69.4492H18.6278C17.5313 69.4492 16.6163 70.2861 16.5185 71.3781L8.97199 155.694C8.86097 156.933 9.83713 158 11.0811 158ZM36.2595 68.2241C37.1627 62.7036 41.953 58.4748 47.727 58.4748C53.5012 58.4748 58.2915 62.7036 59.196 68.224C59.3012 68.8651 58.8119 69.4496 58.1624 69.4496H37.2931C36.6437 69.4492 36.1547 68.8651 36.2595 68.2241Z" fill="#3084C2"/>
</g>
<defs>
<clipPath id="clip0">
<rect width="158" height="158" fill="white"/>
</clipPath>
</defs>
</svg>
