<svg width="511" height="511" viewBox="0 0 511 511" fill="none" xmlns="http://www.w3.org/2000/svg">
<path d="M487 0H24V63H40.64L80.64 511H430.36L470.36 63H487V0ZM364.394 496H322.607L310.107 483.5L343.501 450.106L376.895 483.5L364.394 496ZM387.5 494.106L389.394 496H385.607L387.5 494.106ZM134.106 483.5L167.5 450.106L200.894 483.5L188.394 496H146.607L134.106 483.5ZM125.394 496H121.607L123.501 494.106L125.394 496ZM420.894 175.5L387.5 208.894L354.106 175.5L387.5 142.106L420.894 175.5ZM398.106 131.5L431.5 98.106L450.472 117.078L447.644 148.749L431.5 164.894L398.106 131.5ZM123.5 230.106L156.894 263.5L123.5 296.894L90.106 263.5L123.5 230.106ZM79.5 252.894L71.983 245.377L67.741 197.866L79.5 186.106L112.894 219.5L79.5 252.894ZM332.894 263.5L299.5 296.894L266.106 263.5L299.5 230.106L332.894 263.5ZM310.106 219.5L343.5 186.106L376.894 219.5L343.5 252.894L310.106 219.5ZM211.5 318.106L244.894 351.5L211.5 384.894L178.106 351.5L211.5 318.106ZM167.5 340.894L134.106 307.5L167.5 274.106L200.894 307.5L167.5 340.894ZM222.106 307.5L255.5 274.106L288.894 307.5L255.5 340.894L222.106 307.5ZM299.5 318.106L332.894 351.5L299.5 384.894L266.106 351.5L299.5 318.106ZM310.106 307.5L343.5 274.106L376.894 307.5L343.5 340.894L310.106 307.5ZM255.5 252.894L222.106 219.5L255.5 186.106L288.894 219.5L255.5 252.894ZM244.894 263.5L211.5 296.894L178.106 263.5L211.5 230.106L244.894 263.5ZM167.5 252.894L134.106 219.5L167.5 186.106L200.894 219.5L167.5 252.894ZM112.894 307.5L80.429 339.965L74.955 278.652L79.501 274.106L112.894 307.5ZM123.5 318.106L156.894 351.5L123.5 384.894L90.106 351.5L123.5 318.106ZM167.5 362.106L200.894 395.5L167.5 428.894L134.106 395.5L167.5 362.106ZM211.5 406.106L244.894 439.5L211.5 472.894L178.106 439.5L211.5 406.106ZM222.106 395.5L255.5 362.106L288.894 395.5L255.5 428.894L222.106 395.5ZM299.5 406.106L332.894 439.5L299.5 472.894L266.106 439.5L299.5 406.106ZM310.106 395.5L343.5 362.106L376.894 395.5L343.5 428.894L310.106 395.5ZM354.106 351.5L387.5 318.106L420.894 351.5L387.5 384.894L354.106 351.5ZM398.106 307.5L431.5 274.106L436.046 278.652L430.572 339.965L398.106 307.5ZM387.5 296.894L354.106 263.5L387.5 230.106L420.894 263.5L387.5 296.894ZM398.106 219.5L431.5 186.106L443.259 197.865L439.017 245.376L431.5 252.893L398.106 219.5ZM343.5 164.894L310.106 131.5L343.5 98.106L376.894 131.5L343.5 164.894ZM332.894 175.5L299.5 208.894L266.106 175.5L299.5 142.106L332.894 175.5ZM255.5 164.894L222.106 131.5L255.5 98.106L288.894 131.5L255.5 164.894ZM244.894 175.5L211.5 208.894L178.106 175.5L211.5 142.106L244.894 175.5ZM167.5 164.894L134.106 131.5L167.5 98.106L200.894 131.5L167.5 164.894ZM156.894 175.5L123.5 208.894L90.106 175.5L123.5 142.106L156.894 175.5ZM79.5 164.894L63.356 148.75L60.528 117.079L79.5 98.106L112.894 131.5L79.5 164.894ZM58.789 97.604L56.808 75.414L68.894 87.5L58.789 97.604ZM68.894 175.5L66.003 178.391L65.436 172.042L68.894 175.5ZM112.894 395.5L87.642 420.752L82.691 365.297L112.894 395.5ZM123.5 406.106L156.894 439.5L123.5 472.894L90.106 439.5L123.5 406.106ZM211.5 494.106L213.394 496H209.607L211.5 494.106ZM222.106 483.5L255.5 450.106L288.894 483.5L276.394 496H234.607L222.106 483.5ZM299.5 494.106L301.394 496H297.607L299.5 494.106ZM354.106 439.5L387.5 406.106L420.894 439.5L387.5 472.894L354.106 439.5ZM398.106 395.5L428.309 365.297L423.358 420.752L398.106 395.5ZM442.106 175.5L445.564 172.042L444.997 178.391L442.106 175.5ZM442.106 87.5L454.192 75.414L452.211 97.604L442.106 87.5ZM431.5 76.894L417.606 63H445.393L431.5 76.894ZM396.394 63L420.894 87.5L387.5 120.894L354.106 87.5L378.606 63H396.394ZM343.5 76.894L329.606 63H357.393L343.5 76.894ZM308.394 63L332.894 87.5L299.5 120.894L266.106 87.5L290.606 63H308.394ZM255.5 76.894L241.606 63H269.393L255.5 76.894ZM220.394 63L244.894 87.5L211.5 120.894L178.106 87.5L202.606 63H220.394ZM167.5 76.894L153.606 63H181.393L167.5 76.894ZM132.394 63L156.894 87.5L123.5 120.894L90.106 87.5L114.606 63H132.394ZM79.5 76.894L65.606 63H93.393L79.5 76.894ZM91.318 461.924L112.894 483.5L100.394 496H94.36L91.318 461.924ZM410.606 496L398.106 483.5L419.682 461.924L416.64 496H410.606ZM472 48H39V15H472V48Z" fill="#3084C2"/>
</svg>
