<svg width="442" height="442" viewBox="0 0 442 442" fill="none" xmlns="http://www.w3.org/2000/svg">
<path d="M441.655 289.454C440.568 284.967 436.551 281.807 431.935 281.807H404.925L436.508 265.565C440.613 263.454 442.74 258.806 441.654 254.32C440.567 249.833 436.55 246.673 431.934 246.673H380.734L400.545 224.485C400.558 224.471 400.567 224.454 400.58 224.44C401.204 223.734 401.708 222.961 402.099 222.146C402.122 222.099 402.145 222.052 402.167 222.004C402.538 221.196 402.795 220.351 402.939 219.489C402.954 219.401 402.967 219.312 402.98 219.224C403.038 218.807 403.079 218.388 403.085 217.968C403.085 217.959 403.086 217.95 403.087 217.941C403.091 217.523 403.061 217.106 403.013 216.69C403 216.575 402.984 216.462 402.967 216.348C402.909 215.962 402.834 215.577 402.731 215.198C402.722 215.164 402.717 215.129 402.707 215.095C402.592 214.688 402.441 214.29 402.273 213.897C402.251 213.845 402.239 213.791 402.216 213.739C402.19 213.682 402.154 213.632 402.128 213.575C401.973 213.245 401.801 212.923 401.608 212.608C401.569 212.545 401.536 212.477 401.496 212.414C401.285 212.087 401.045 211.772 400.792 211.466C400.68 211.331 400.562 211.202 400.444 211.073C400.371 210.994 400.307 210.91 400.231 210.832L309.661 118.453L400.545 16.66C403.171 13.72 403.823 9.512 402.213 5.914C400.603 2.315 397.029 0 393.086 0H107.184C104.335 0 101.622 1.215 99.725 3.34L2.60397 112.112C2.57497 112.144 2.55396 112.181 2.52596 112.214C2.23596 112.547 1.96596 112.891 1.72796 113.251C1.70796 113.281 1.69296 113.312 1.67296 113.342C1.45096 113.684 1.25696 114.038 1.08096 114.399C1.04196 114.48 1.00296 114.56 0.964965 114.642C0.607965 115.428 0.358965 116.249 0.216965 117.088C0.198965 117.191 0.183965 117.294 0.168965 117.397C0.113965 117.797 0.0759648 118.198 0.0689648 118.601C0.0689648 118.622 0.0659648 118.643 0.0649648 118.664C0.0599648 119.084 0.0909648 119.504 0.139965 119.922C0.151965 120.027 0.166965 120.132 0.181965 120.237C0.242965 120.651 0.321965 121.063 0.434965 121.469C0.436965 121.475 0.437965 121.482 0.438965 121.488C0.558965 121.915 0.716965 122.333 0.894965 122.745C0.910965 122.782 0.919965 122.822 0.935965 122.859C0.953965 122.9 0.980965 122.936 0.998965 122.977C1.18096 123.369 1.38096 123.753 1.61596 124.123C1.62196 124.132 1.62696 124.142 1.63196 124.151C1.86096 124.51 2.12196 124.854 2.40196 125.187C2.47696 125.277 2.55597 125.362 2.63397 125.449C2.73097 125.556 2.81896 125.669 2.92096 125.773L93.487 218.148L2.60397 319.937C2.57297 319.971 2.55096 320.011 2.52096 320.045C2.23896 320.369 1.97396 320.707 1.73496 321.066C1.70696 321.108 1.68496 321.151 1.65796 321.193C1.44696 321.521 1.25796 321.862 1.08596 322.214C1.04596 322.296 1.00596 322.376 0.967965 322.459C0.787965 322.853 0.627965 323.256 0.499965 323.676C0.497965 323.683 0.496965 323.691 0.493965 323.698C0.374965 324.092 0.286965 324.499 0.215965 324.912C0.197965 325.017 0.181965 325.122 0.167965 325.228C0.118965 325.582 0.0889648 325.941 0.0779648 326.306C0.0759648 326.38 0.0669648 326.453 0.0669648 326.527C0.0669648 326.55 0.0639648 326.573 0.0639648 326.596C0.0639648 327.003 0.0949648 327.402 0.142965 327.796C0.153965 327.891 0.171965 327.984 0.185965 328.079C0.240965 328.445 0.313965 328.805 0.406965 329.157C0.426965 329.232 0.442965 329.307 0.464965 329.382C0.588965 329.811 0.739965 330.228 0.917965 330.632C0.924965 330.649 0.928965 330.666 0.935965 330.683C0.952965 330.721 0.975965 330.753 0.993965 330.79C1.16096 331.15 1.34796 331.497 1.55496 331.832C1.59796 331.901 1.63696 331.972 1.68096 332.04C1.91196 332.395 2.16396 332.735 2.43696 333.057C2.49496 333.126 2.55796 333.189 2.61796 333.257C2.85196 333.519 3.09896 333.767 3.35896 334.003C3.43096 334.068 3.50096 334.135 3.57396 334.198C3.89196 334.469 4.22496 334.722 4.57596 334.953C4.63396 334.991 4.69396 335.024 4.75196 335.06C5.06696 335.258 5.39396 335.437 5.73196 335.6C5.80796 335.637 5.88196 335.675 5.95796 335.709C6.35196 335.887 6.75596 336.043 7.17496 336.169C7.21096 336.18 7.24796 336.187 7.28296 336.197C7.65796 336.305 8.04396 336.388 8.43596 336.453C8.53996 336.47 8.64396 336.487 8.74896 336.501C9.17896 336.558 9.61496 336.597 10.061 336.597H295.963C296.343 336.597 296.719 336.572 297.092 336.53C297.209 336.517 297.324 336.492 297.441 336.474C297.697 336.435 297.951 336.394 298.202 336.337C298.338 336.306 298.471 336.265 298.605 336.228C298.834 336.165 299.06 336.099 299.283 336.02C299.421 335.971 299.556 335.916 299.692 335.862C299.907 335.776 300.119 335.683 300.327 335.582C300.396 335.549 300.468 335.525 300.536 335.49L366.032 301.807H390.621L293.542 351.732H10.064C4.54097 351.732 0.0639648 356.21 0.0639648 361.732C0.0639648 367.254 4.54097 371.732 10.064 371.732H295.966C297.557 371.732 299.124 371.352 300.539 370.625L366.035 336.942H390.623L293.545 386.866H10.064C4.54097 386.866 0.0639648 391.344 0.0639648 396.866C0.0639648 402.388 4.54097 406.866 10.064 406.866H295.966C297.557 406.866 299.124 406.486 300.539 405.759L366.034 372.077H390.623L293.545 422H10.064C4.54097 422 0.0639648 426.478 0.0639648 432C0.0639648 437.522 4.54097 442 10.064 442H295.966C297.557 442 299.124 441.62 300.539 440.893L436.508 370.969C440.613 368.858 442.74 364.211 441.654 359.724C440.567 355.237 436.55 352.077 431.934 352.077H404.924L436.507 335.835C440.612 333.724 442.739 329.077 441.653 324.59C440.566 320.103 436.549 316.943 431.933 316.943H404.923L436.506 300.701C440.614 298.588 442.741 293.94 441.655 289.454ZM390.624 266.672L339.318 293.057L362.876 266.672H390.624ZM32.399 316.597L111.662 227.825H247.559C253.081 227.825 257.559 223.347 257.559 217.825C257.559 212.303 253.081 207.825 247.559 207.825H111.376L33.872 128.773H70.564C76.087 128.773 80.564 124.295 80.564 118.773C80.564 113.251 76.087 108.773 70.564 108.773H32.399L111.661 20H370.751L291.488 108.772H110.553C105.03 108.772 100.553 113.25 100.553 118.772C100.553 124.294 105.03 128.772 110.553 128.772H291.766L369.269 207.824H287.546C282.024 207.824 277.546 212.302 277.546 217.824C277.546 223.346 282.024 227.824 287.546 227.824H370.751L291.488 316.596H32.399V316.597Z" fill="#3084C2"/>
</svg>
