<svg width="297" height="297" viewBox="0 0 297 297" fill="none" xmlns="http://www.w3.org/2000/svg">
<path d="M260.146 137.468H245.707L261.038 45.4806C261.908 40.2586 259.771 34.9936 255.516 31.8436C251.262 28.6926 245.59 28.1976 240.852 30.5536C240.522 30.7176 207.474 46.9586 175.599 46.9586C155.527 46.9586 141.359 41.3756 126.358 35.4656C104.408 26.8166 81.714 17.8766 45.947 29.7956C39.369 31.9886 35.364 38.6406 36.504 45.4796L51.835 137.467H36.854C16.532 137.468 0 154 0 174.322V258.869C0 266.651 6.309 272.96 14.091 272.96H282.909C290.691 272.96 297 266.651 297 258.869V174.322C297 154 280.468 137.468 260.146 137.468ZM66.404 53.4576C85.696 49.7316 98.855 54.9196 116.026 61.6856C132.032 67.9926 150.174 75.1406 175.598 75.1406C195.24 75.1406 214.615 70.3416 229.127 65.5176L217.135 137.468H80.406L66.404 53.4576ZM36.854 165.65H260.146C264.847 165.65 268.818 169.621 268.818 174.322V244.778H28.182V174.322C28.182 169.621 32.153 165.65 36.854 165.65Z" fill="#3084C2"/>
</svg>
