<svg width="328" height="328" viewBox="0 0 328 328" fill="none" xmlns="http://www.w3.org/2000/svg">
<g clip-path="url(#clip0)">
<path d="M100.646 0V0.211C55.577 2.257 20.996 21.194 18.41 45.473H18.146V48.379V280.743V280.948C18.146 281.56 18.225 282.151 18.357 282.72C20.538 306.725 61.776 327.375 108.752 327.375C143.064 327.375 174.287 316.343 189.533 301.05H309.229V0H108.746H100.646ZM293.018 16.2V284.85H198.919C199.045 284.149 199.077 283.437 199.141 282.72C199.273 282.151 199.352 281.56 199.352 280.948V280.743V48.378V45.472H199.088C197.875 34.166 189.743 24.025 176.808 16.2H293.018V16.2ZM160.375 301.05C147.603 306.778 130.011 311.175 108.746 311.175C63.598 311.175 34.733 291.452 34.377 280.947H34.345V280.747V76.275C49.15 87.637 72.918 95.288 100.645 96.546C103.319 96.665 106.008 96.757 108.745 96.757C111.482 96.757 114.171 96.665 116.845 96.546C144.573 95.288 168.34 87.637 183.145 76.275V280.747V280.947H183.114C183.072 282.15 182.666 283.463 181.906 284.855C180.514 287.386 177.941 290.166 174.334 292.955C170.717 295.745 166.013 298.524 160.375 301.05ZM100.646 16.395C103.293 16.271 105.994 16.2 108.746 16.2C111.498 16.2 114.199 16.271 116.846 16.395C153.647 18.193 179.465 32.044 182.783 45.468C183.014 46.441 183.146 47.413 183.146 48.373C183.146 50.09 182.704 51.835 181.95 53.567C180.758 56.317 178.628 59.049 175.701 61.667C165.138 71.117 144.02 79.027 116.841 80.356C114.194 80.488 111.494 80.551 108.741 80.551C105.986 80.551 103.286 80.48 100.641 80.356C73.467 79.027 52.344 71.117 41.781 61.667C38.854 59.049 36.727 56.323 35.532 53.567C34.776 51.83 34.335 50.089 34.335 48.373C34.335 47.413 34.459 46.44 34.701 45.468C38.027 32.044 63.845 18.193 100.646 16.395Z" fill="#3084C2"/>
<path d="M79.2509 61.6734C85.0839 64.5784 92.8139 66.1974 100.646 66.8414C103.362 67.0634 106.083 67.1874 108.746 67.1874C111.409 67.1874 114.13 67.0684 116.846 66.8414C124.677 66.1974 132.408 64.5784 138.241 61.6734C142.317 59.6374 145.439 56.9694 147.026 53.5734C147.762 51.9964 148.194 50.2804 148.194 48.3794C148.194 47.3594 148.047 46.3964 147.825 45.4734C145.489 35.6524 131.335 31.1034 116.846 29.9114C114.13 29.6894 111.409 29.5654 108.746 29.5654C106.083 29.5654 103.362 29.6844 100.646 29.9114C86.1569 31.1024 72.0029 35.6514 69.6669 45.4734C69.4449 46.4014 69.2979 47.3594 69.2979 48.3794C69.2979 50.2804 69.7299 51.9974 70.4659 53.5734C72.0529 56.9694 75.1749 59.6374 79.2509 61.6734ZM116.846 50.5494C114.394 50.7994 111.765 50.9814 108.746 50.9814C105.727 50.9814 103.098 50.7994 100.646 50.5494C95.8889 50.0694 92.0979 49.2434 89.4739 48.3794C92.0919 47.5094 95.8889 46.6844 100.646 46.2044C103.098 45.9544 105.727 45.7714 108.746 45.7714C111.765 45.7714 114.394 45.9534 116.846 46.2044C121.603 46.6844 125.4 47.5094 128.018 48.3794C125.394 49.2494 121.603 50.0684 116.846 50.5494Z" fill="#3084C2"/>
</g>
<defs>
<clipPath id="clip0">
<rect width="327.375" height="327.375" fill="white"/>
</clipPath>
</defs>
</svg>
