<svg width="512" height="512" viewBox="0 0 512 512" fill="none" xmlns="http://www.w3.org/2000/svg">
<path d="M466.978 200.728H462.537C464.516 190.737 463.485 180.387 459.439 170.795C448.395 144.617 418.117 132.305 391.939 143.344C365.761 154.386 353.448 184.666 364.489 210.844C369.838 223.525 379.805 233.364 392.554 238.549C398.824 241.099 405.398 242.372 411.969 242.372C418.759 242.372 425.545 241.011 431.989 238.294C441.868 234.127 450.01 227.148 455.582 218.245H466.979C482.145 218.245 494.485 230.584 494.485 245.751V436.826C494.485 451.992 482.146 464.333 466.979 464.333H45.023C29.857 464.333 17.517 451.994 17.517 436.826V245.752C17.517 230.586 29.856 218.246 45.023 218.246H326.87C331.707 218.246 335.629 214.324 335.629 209.487C335.629 204.65 331.707 200.728 326.87 200.728H45.023C20.197 200.728 0 220.926 0 245.752V436.827C0 461.654 20.197 481.851 45.023 481.851H466.977C491.802 481.851 512 461.654 512 436.827V245.752C512 220.926 491.803 200.728 466.978 200.728ZM443.466 203.632C440.044 212.046 433.551 218.626 425.18 222.155C416.811 225.685 407.567 225.746 399.152 222.323C390.738 218.901 384.16 212.407 380.629 204.037C373.341 186.759 381.469 166.773 398.746 159.486C403.049 157.671 407.516 156.812 411.917 156.812C425.188 156.812 437.825 164.628 443.297 177.604C446.828 185.973 446.887 195.216 443.466 203.632Z" fill="#3084C2"/>
<path d="M416.056 254.992H95.944C77.881 254.992 63.187 269.687 63.187 287.749V394.828C63.187 412.891 77.882 427.585 95.944 427.585H367.402C372.239 427.585 376.161 423.665 376.161 418.826C376.161 413.987 372.239 410.067 367.402 410.067H95.944C87.54 410.067 80.704 403.231 80.704 394.827V287.749C80.704 279.347 87.54 272.509 95.944 272.509H416.055C424.459 272.509 431.295 279.345 431.295 287.749V394.828C431.295 403.23 424.459 410.068 416.055 410.068C411.218 410.068 407.296 413.988 407.296 418.827C407.296 423.666 411.218 427.586 416.055 427.586C434.118 427.586 448.812 412.891 448.812 394.829V287.749C448.813 269.687 434.118 254.992 416.056 254.992Z" fill="#3084C2"/>
<path d="M363.813 102.608C355.219 82.2341 331.654 72.6471 311.276 81.2431C290.903 89.8361 281.319 113.404 289.912 133.778C294.075 143.647 301.833 151.306 311.755 155.341C316.635 157.326 321.751 158.318 326.865 158.318C332.149 158.318 337.431 157.259 342.446 155.144C352.316 150.981 359.974 143.223 364.01 133.301C368.047 123.378 367.977 112.478 363.813 102.608ZM347.784 126.7C345.511 132.288 341.199 136.657 335.64 139.002C330.082 141.346 323.943 141.387 318.355 139.113C312.766 136.84 308.397 132.528 306.052 126.969C301.214 115.495 306.611 102.222 318.085 97.3822C323.644 95.0362 329.782 94.9971 335.371 97.2701C340.959 99.5431 345.328 103.855 347.673 109.414C350.017 114.973 350.058 121.111 347.784 126.7Z" fill="#3084C2"/>
<path d="M453.309 48.1622C450.253 40.9172 444.559 35.2962 437.275 32.3332C429.991 29.3702 421.991 29.4232 414.744 32.4792C407.499 35.5352 401.878 41.2292 398.915 48.5132C395.953 55.7972 396.005 63.7992 399.061 71.0442C402.117 78.2882 407.811 83.9102 415.095 86.8712C418.678 88.3282 422.434 89.0562 426.188 89.0562C430.066 89.0562 433.945 88.2782 437.626 86.7262C444.871 83.6702 450.492 77.9762 453.455 70.6922C456.417 63.4092 456.365 55.4082 453.309 48.1622ZM430.818 70.5872C424.764 73.1432 417.757 70.2932 415.202 64.2362C412.648 58.1802 415.497 51.1742 421.554 48.6202C423.062 47.9842 424.628 47.6822 426.17 47.6822C430.821 47.6822 435.251 50.4222 437.169 54.9702C439.724 61.0272 436.874 68.0332 430.818 70.5872Z" fill="#3084C2"/>
<path d="M174.776 307.853V379H158.604V330.968L152.145 379H140.675L133.863 332.066V379H117.691V307.853H141.642C142.345 312.13 143.092 317.169 143.883 322.97L146.432 341.075L150.65 307.853H174.776ZM238.813 362.345C238.813 367.647 238.125 371.456 236.748 373.771C235.371 376.085 233.276 377.535 230.464 378.121C227.681 378.707 223.228 379 217.104 379H195.703V307.809H214.248V332.198H217.104C222.817 332.198 227.139 332.535 230.068 333.209C232.998 333.883 235.181 335.377 236.616 337.691C238.081 339.977 238.813 343.58 238.813 348.502V362.345ZM220.269 360.191V349.908C220.269 346.92 219.961 345.104 219.346 344.459C218.76 343.814 217.061 343.448 214.248 343.36V366.739C216.592 366.739 218.174 366.446 218.994 365.86C219.844 365.245 220.269 363.355 220.269 360.191ZM263.643 379H245.098V307.809H263.643V379ZM329.086 379H310.541V322.047H305.136V362.345C305.136 367.647 304.447 371.456 303.07 373.771C301.723 376.085 299.657 377.535 296.874 378.121C294.091 378.707 289.652 379 283.559 379H280.658V366.739C282.914 366.739 284.467 366.461 285.316 365.904C286.166 365.348 286.591 363.443 286.591 360.191V307.809H329.086V379ZM392.244 349.513C392.244 356.661 392.068 361.729 391.717 364.718C391.395 367.677 390.34 370.387 388.553 372.848C386.795 375.309 384.407 377.198 381.39 378.517C378.372 379.835 374.856 380.494 370.843 380.494C367.034 380.494 363.606 379.879 360.56 378.648C357.542 377.389 355.11 375.514 353.265 373.023C351.419 370.533 350.32 367.823 349.969 364.894C349.617 361.964 349.441 356.837 349.441 349.513V337.34C349.441 330.191 349.603 325.138 349.925 322.179C350.276 319.19 351.331 316.466 353.089 314.005C354.876 311.544 357.278 309.654 360.296 308.336C363.313 307.018 366.829 306.358 370.843 306.358C374.651 306.358 378.064 306.988 381.082 308.248C384.129 309.479 386.575 311.339 388.421 313.829C390.267 316.319 391.365 319.029 391.717 321.959C392.068 324.889 392.244 330.016 392.244 337.34V349.513ZM373.743 326.134C373.743 322.823 373.553 320.714 373.172 319.806C372.82 318.868 372.073 318.399 370.931 318.399C369.964 318.399 369.217 318.78 368.689 319.542C368.191 320.274 367.942 322.472 367.942 326.134V359.356C367.942 363.487 368.104 366.036 368.426 367.003C368.777 367.97 369.568 368.453 370.799 368.453C372.059 368.453 372.864 367.896 373.216 366.783C373.567 365.67 373.743 363.019 373.743 358.829V326.134Z" fill="#3084C2"/>
</svg>
