<svg width="261" height="261" viewBox="0 0 261 261" fill="none" xmlns="http://www.w3.org/2000/svg">
<g clip-path="url(#clip0)">
<path d="M235.609 260.576C242.601 260.576 248.284 254.888 248.284 247.901V90.5375C248.284 83.5475 242.596 77.8605 235.609 77.8605H210.9C210.281 75.8575 209.245 74.0015 207.721 72.4835L139.046 3.80348C133.976 -1.26652 125.729 -1.26652 120.664 3.80348L51.99 72.4725C50.467 73.9955 49.423 75.8515 48.808 77.8545H24.968C17.973 77.8545 12.291 83.5425 12.291 90.5325V247.895C12.291 254.882 17.978 260.57 24.968 260.57H235.61V260.576H235.609ZM129.853 16.6735L191.04 77.8605H68.666L129.853 16.6735ZM27.89 93.4595H232.689V244.976H27.89V93.4595Z" fill="#3084C2"/>
<path d="M135.535 131.053H130.925C126.852 131.053 122.942 134.165 122.029 138.132L114.234 171.971L107.224 138.213C106.391 134.196 102.529 131.048 98.427 131.048H93.278C89.165 131.048 85.323 134.206 84.529 138.248L78.065 171.179L70.443 138.126C69.526 134.155 65.616 131.048 61.539 131.048H56.293C54.105 131.048 52.165 131.956 50.964 133.536C49.768 135.125 49.418 137.243 50.012 139.355L67.17 199.864C68.267 203.733 72.266 206.76 76.293 206.76H79.579C83.687 206.76 87.549 203.616 88.371 199.594L95.78 163.729L103.191 199.594C104.011 203.616 107.876 206.765 111.984 206.765H115.696C119.715 206.765 123.719 203.733 124.806 199.859L141.822 139.355C142.422 137.243 142.071 135.125 140.868 133.536C139.666 131.956 137.727 131.053 135.535 131.053Z" fill="#3084C2"/>
<path d="M178.594 147.495C182.997 147.495 186.171 148.698 188.288 151.177C188.933 151.929 189.537 152.939 190.091 154.168C191.518 157.397 195.301 159.738 199.079 159.738H203.415C205.746 159.738 207.92 158.681 209.24 156.92C210.443 155.305 210.803 153.249 210.219 151.288C209.356 148.368 207.913 145.413 205.923 142.493C200.002 134.013 190.618 129.712 178.034 129.712C168.579 129.712 160.657 132.906 154.503 139.198C147.511 146.343 143.962 156.528 143.962 169.482C143.962 181.461 147.079 191.085 153.224 198.086C159.454 205.145 168.072 208.725 178.837 208.725C187.591 208.725 194.903 206.064 200.561 200.813C204.882 196.801 207.985 191.815 209.773 185.981C210.402 183.96 210.078 181.868 208.874 180.248C207.609 178.532 205.568 177.547 203.273 177.547H199.033C195.24 177.547 191.441 180.02 190.014 183.417C189.451 184.777 188.821 185.88 188.14 186.728C185.997 189.465 182.879 190.795 178.624 190.795C174.479 190.795 171.159 189.181 168.458 185.855C165.659 182.402 164.237 176.973 164.237 169.716C164.237 162.384 165.614 156.717 168.31 152.862C170.845 149.252 174.207 147.495 178.594 147.495Z" fill="#3084C2"/>
</g>
<defs>
<clipPath id="clip0">
<rect width="260.575" height="260.575" fill="white"/>
</clipPath>
</defs>
</svg>
