<svg width="83" height="83" viewBox="0 0 83 83" fill="none" xmlns="http://www.w3.org/2000/svg">
<path d="M65.4895 18.9736C62.1714 18.9736 59.6689 23.3525 59.6689 29.1596C59.6689 34.9667 62.1714 39.3456 65.4895 39.3456C68.8075 39.3456 71.31 34.9667 71.31 29.1596C71.31 23.3525 68.8075 18.9736 65.4895 18.9736ZM65.4895 36.4352C64.303 36.4352 62.5791 33.6009 62.5791 29.1595C62.5791 24.718 64.3028 21.8837 65.4895 21.8837C66.6761 21.8837 68.3998 24.718 68.3998 29.1595C68.3998 33.6011 66.676 36.4352 65.4895 36.4352Z" fill="#3084C2"/>
<path d="M75.0626 9.04554C72.6221 3.24916 69.2225 0.0570625 65.4897 0.0570625C65.1889 0.0570625 64.8911 0.0782988 64.5949 0.119637C64.4226 0.0476602 64.2332 0 64.0346 0H20.3664C11.5482 0 4.41455 7.19782 4.41455 16.0276V81.5449C4.41455 82.1335 4.74882 82.6639 5.2927 82.8891C5.83479 83.114 6.45194 82.9899 6.86791 82.5737L11.6544 77.7822L16.4436 82.5737C17.0113 83.142 17.9325 83.142 18.5001 82.5737L23.2911 77.7822L28.0824 82.5737C28.6501 83.142 29.572 83.142 30.1397 82.5737L34.9315 77.7822L39.7233 82.5451C39.9961 82.8183 40.3662 82.9429 40.752 82.9429C40.7538 82.9429 40.7559 82.9429 40.7577 82.9429C41.1456 82.9429 41.5168 82.8136 41.789 82.5369L47.2568 76.9969L52.8194 82.5664C53.0976 82.8449 53.47 82.9963 53.8487 82.9963C54.0359 82.9963 54.2458 82.9617 54.4253 82.8872C54.9692 82.6618 55.3443 82.1334 55.3443 81.5447V58.2057H65.4894C69.2221 58.2057 72.6216 55.0425 75.0623 49.2461C77.3346 43.8493 78.5857 36.7204 78.5857 29.1458C78.5861 21.5714 77.3348 14.442 75.0626 9.04554ZM52.5017 25.7645C52.4485 25.9159 52.4343 26.08 52.4343 26.2499V50.9873V78.0318L48.2984 73.9141C48.0255 73.6405 47.6347 73.485 47.2489 73.485C47.2471 73.485 47.245 73.485 47.2432 73.485C46.8553 73.485 46.484 73.6452 46.2119 73.922L40.7441 79.4779L35.9605 74.695C35.3928 74.1266 34.4706 74.1269 33.9029 74.6953L29.1111 79.4871L24.3193 74.6956C23.7516 74.1273 22.8294 74.1273 22.2617 74.6956L17.4699 79.4871L12.6781 74.6956C12.1104 74.1273 11.2087 74.1273 10.6407 74.6956L7.32474 78.0318V52.3852H10.1942C10.9978 52.3852 11.6493 51.7336 11.6493 50.9301C11.6493 50.1265 10.9978 49.475 10.1942 49.475H7.3249V26.1925H10.1944C10.998 26.1925 11.6495 25.541 11.6495 24.7374C11.6495 23.9338 10.998 23.2823 10.1944 23.2823H7.3249V16.0276C7.3249 8.8027 13.1529 2.91035 20.3664 2.91035H59.6762C58.2712 4.36544 56.9993 6.46784 55.9172 9.03857C53.9874 13.6211 52.818 19.4685 52.5017 25.7645ZM55.3446 55.2953V47.6945C55.3446 48.2342 55.723 48.7358 55.9379 49.2459C57.009 51.7907 58.2452 53.8401 59.6337 55.2952H55.3446V55.2953ZM72.3804 48.1452C70.4516 52.7256 67.9403 55.3527 65.4897 55.3527C63.0395 55.3527 60.5279 52.7256 58.5994 48.1452C56.4744 43.0981 55.3038 36.3556 55.3038 29.1601C55.3038 21.9647 56.4744 15.2222 58.5994 10.175C60.5277 5.59456 63.0395 2.96741 65.4897 2.96741C67.9403 2.96741 70.4516 5.59456 72.3804 10.175C74.5055 15.2222 75.6757 21.9645 75.6757 29.1601C75.6757 36.3555 74.5055 43.0979 72.3804 48.1452Z" fill="#3084C2"/>
<path d="M40.7522 49.4746H37.8418C37.0382 49.4746 36.3867 50.1261 36.3867 50.9297C36.3867 51.7333 37.0382 52.3848 37.8418 52.3848H40.7522C41.5557 52.3848 42.2073 51.7333 42.2073 50.9297C42.2073 50.1261 41.5557 49.4746 40.7522 49.4746Z" fill="#3084C2"/>
<path d="M50.9382 49.4746H48.0279C47.2243 49.4746 46.5728 50.1261 46.5728 50.9297C46.5728 51.7333 47.2243 52.3848 48.0279 52.3848H50.9382C51.7418 52.3848 52.3933 51.7333 52.3933 50.9297C52.3933 50.1261 51.7418 49.4746 50.9382 49.4746Z" fill="#3084C2"/>
<path d="M30.5661 49.4746H27.6558C26.8522 49.4746 26.2007 50.1261 26.2007 50.9297C26.2007 51.7333 26.8522 52.3848 27.6558 52.3848H30.5661C31.3697 52.3848 32.0212 51.7333 32.0212 50.9297C32.0212 50.1261 31.3697 49.4746 30.5661 49.4746Z" fill="#3084C2"/>
<path d="M20.3801 49.4746H17.4697C16.6662 49.4746 16.0146 50.1261 16.0146 50.9297C16.0146 51.7333 16.6662 52.3848 17.4697 52.3848H20.3801C21.1837 52.3848 21.8352 51.7333 21.8352 50.9297C21.8352 50.1261 21.1837 49.4746 20.3801 49.4746Z" fill="#3084C2"/>
<path d="M50.9382 23.2822H48.0279C47.2243 23.2822 46.5728 23.9337 46.5728 24.7373C46.5728 25.5409 47.2243 26.1924 48.0279 26.1924H50.9382C51.7418 26.1924 52.3933 25.5409 52.3933 24.7373C52.3933 23.9337 51.7418 23.2822 50.9382 23.2822Z" fill="#3084C2"/>
<path d="M20.3801 23.2822H17.4697C16.6662 23.2822 16.0146 23.9337 16.0146 24.7373C16.0146 25.5409 16.6662 26.1924 17.4697 26.1924H20.3801C21.1837 26.1924 21.8352 25.5409 21.8352 24.7373C21.8352 23.9337 21.1837 23.2822 20.3801 23.2822Z" fill="#3084C2"/>
<path d="M40.7522 23.2822H37.8418C37.0382 23.2822 36.3867 23.9337 36.3867 24.7373C36.3867 25.5409 37.0382 26.1924 37.8418 26.1924H40.7522C41.5557 26.1924 42.2073 25.5409 42.2073 24.7373C42.2073 23.9337 41.5557 23.2822 40.7522 23.2822Z" fill="#3084C2"/>
<path d="M30.5661 23.2822H27.6558C26.8522 23.2822 26.2007 23.9337 26.2007 24.7373C26.2007 25.5409 26.8522 26.1924 27.6558 26.1924H30.5661C31.3697 26.1924 32.0212 25.5409 32.0212 24.7373C32.0212 23.9337 31.3697 23.2822 30.5661 23.2822Z" fill="#3084C2"/>
</svg>
