<svg width="24" height="24" viewBox="0 0 24 24" fill="none" xmlns="http://www.w3.org/2000/svg">
<mask id="path-2-inside-1" fill="white">
<path d="M12.0002 0C7.33224 0 3.53467 3.79758 3.53467 8.46554C3.53467 14.1479 11.2961 23.4336 11.6266 23.8261C11.7189 23.9359 11.8548 23.9993 11.9981 24H12.0002C12.1428 24 12.2783 23.9377 12.3711 23.8293C12.7016 23.4434 20.4657 14.3111 20.4657 8.46554C20.4657 3.79758 16.6682 0 12.0002 0ZM12.0031 22.7431C10.4444 20.8044 4.51146 13.1185 4.51146 8.46554C4.51146 4.33625 7.87091 0.976793 12.0002 0.976793C16.1295 0.976793 19.489 4.33625 19.489 8.46554C19.4889 13.2512 13.5663 20.8271 12.0031 22.7431Z"/>
</mask>
<path d="M12.0002 0C7.33224 0 3.53467 3.79758 3.53467 8.46554C3.53467 14.1479 11.2961 23.4336 11.6266 23.8261C11.7189 23.9359 11.8548 23.9993 11.9981 24H12.0002C12.1428 24 12.2783 23.9377 12.3711 23.8293C12.7016 23.4434 20.4657 14.3111 20.4657 8.46554C20.4657 3.79758 16.6682 0 12.0002 0ZM12.0031 22.7431C10.4444 20.8044 4.51146 13.1185 4.51146 8.46554C4.51146 4.33625 7.87091 0.976793 12.0002 0.976793C16.1295 0.976793 19.489 4.33625 19.489 8.46554C19.4889 13.2512 13.5663 20.8271 12.0031 22.7431Z" fill="#4590C8"/>
<path d="M11.6266 23.8261L12.392 23.1825L12.3916 23.1821L11.6266 23.8261ZM11.9981 24L11.9936 25H11.9981V24ZM12.3711 23.8293L11.6116 23.1789L11.6116 23.1789L12.3711 23.8293ZM20.4657 8.46554H21.4657V8.46553L20.4657 8.46554ZM12.0031 22.7431L11.2238 23.3697L11.9975 24.3319L12.778 23.3752L12.0031 22.7431ZM19.489 8.46554L20.489 8.46555V8.46554H19.489ZM12.0002 -1C6.77996 -1 2.53467 3.24529 2.53467 8.46554H4.53467C4.53467 4.34986 7.88453 1 12.0002 1V-1ZM2.53467 8.46554C2.53467 10.0885 3.08183 11.8829 3.83634 13.6083C4.59793 15.3499 5.60838 17.1045 6.61568 18.6705C8.63065 21.803 10.6845 24.2597 10.8616 24.4702L12.3916 23.1821C12.2383 23 10.2461 20.6175 8.29775 17.5885C7.32337 16.0737 6.3728 14.4169 5.66879 12.807C4.95769 11.1809 4.53467 9.68378 4.53467 8.46554H2.53467ZM10.8613 24.4697C11.143 24.8048 11.5574 24.998 11.9936 25L12.0027 23C12.1522 23.0007 12.2948 23.0669 12.392 23.1825L10.8613 24.4697ZM11.9981 25H12.0002V23H11.9981V25ZM12.0002 25C12.4346 25 12.8477 24.8102 13.1307 24.4798L11.6116 23.1789C11.7089 23.0652 11.8509 23 12.0002 23V25ZM13.1307 24.4798C13.3086 24.272 15.3646 21.8541 17.3818 18.7383C18.3903 17.1805 19.4019 15.4288 20.1644 13.6771C20.9205 11.9397 21.4657 10.126 21.4657 8.46554H19.4657C19.4657 9.72782 19.0405 11.2478 18.3305 12.8789C17.6268 14.4956 16.6768 16.1471 15.7029 17.6514C13.7554 20.6596 11.7642 23.0007 11.6116 23.1789L13.1307 24.4798ZM21.4657 8.46553C21.4657 3.2453 17.2205 -1 12.0002 -1V1C16.1159 1 19.4657 4.34985 19.4657 8.46555L21.4657 8.46553ZM12.7825 22.1165C12.0149 21.1618 10.1719 18.7935 8.526 16.1006C7.70294 14.7541 6.9408 13.3452 6.38706 12.0049C5.82748 10.6505 5.51146 9.43866 5.51146 8.46554H3.51146C3.51146 9.81891 3.93705 11.3126 4.53861 12.7686C5.146 14.2387 5.96451 15.7448 6.81952 17.1437C8.52973 19.9417 10.4326 22.3857 11.2238 23.3697L12.7825 22.1165ZM5.51146 8.46554C5.51146 4.88853 8.4232 1.97679 12.0002 1.97679V-0.0232069C7.31863 -0.0232069 3.51146 3.78396 3.51146 8.46554H5.51146ZM12.0002 1.97679C15.5772 1.97679 18.489 4.88853 18.489 8.46554H20.489C20.489 3.78396 16.6818 -0.0232069 12.0002 -0.0232069V1.97679ZM18.489 8.46553C18.4889 9.47532 18.1714 10.7072 17.6139 12.0664C17.0615 13.4132 16.3012 14.8189 15.4799 16.1575C13.8373 18.8346 11.9973 21.1683 11.2283 22.1109L12.778 23.3752C13.5721 22.4018 15.475 19.9897 17.1846 17.2034C18.0393 15.8103 18.8574 14.305 19.4643 12.8254C20.0661 11.3583 20.4889 9.84858 20.489 8.46555L18.489 8.46553Z" fill="#4590C8" mask="url(#path-2-inside-1)"/>
<path d="M12.0005 4.70752C10.0159 4.70752 8.40137 6.32203 8.40137 8.30661C8.40137 10.2912 10.0159 11.9057 12.0005 11.9057C13.985 11.9057 15.5996 10.2912 15.5996 8.30661C15.5996 6.32203 13.985 4.70752 12.0005 4.70752ZM12.0005 10.9288C10.5545 10.9288 9.37816 9.75253 9.37816 8.30655C9.37816 6.86057 10.5545 5.68425 12.0005 5.68425C13.4464 5.68425 14.6228 6.86057 14.6228 8.30655C14.6228 9.75253 13.4463 10.9288 12.0005 10.9288Z" fill="#4590C8"/>
</svg>
