<svg width="24" height="24" viewBox="0 0 24 24" fill="none" xmlns="http://www.w3.org/2000/svg">
<g clip-path="url(#clip0)">
<path d="M20.0598 11.1219H19.4544C19.0147 7.00091 15.5175 3.78027 11.2817 3.78027C6.74929 3.78027 3.06201 7.4676 3.06201 12C3.06201 16.5324 6.74929 20.2197 11.2817 20.2197C15.5175 20.2197 19.0148 16.9991 19.4544 12.8781H20.0598C20.5447 12.8781 20.9379 12.4849 20.9379 12C20.9379 11.5151 20.5448 11.1219 20.0598 11.1219ZM12.1594 12C12.1594 12.2329 12.0669 12.4562 11.9022 12.6209L10.1738 14.3493C9.83095 14.6921 9.27497 14.6923 8.93208 14.3493C8.58918 14.0064 8.58918 13.4504 8.93208 13.1076L10.4033 11.6363V8.45709C10.4033 7.97216 10.7965 7.57902 11.2814 7.57902C11.7663 7.57902 12.1595 7.97216 12.1595 8.45709V12H12.1594Z" fill="#4590C8"/>
<path d="M16.1782 20.0099C13.1778 21.8508 9.38734 21.852 6.38514 20.0099C5.99411 19.7701 5.4917 20.0485 5.4917 20.5072V23.1218C5.4917 23.6067 5.88484 23.9998 6.36976 23.9998H16.1935C16.6785 23.9998 17.0716 23.6067 17.0716 23.1218V20.5072C17.0717 20.0485 16.5692 19.77 16.1782 20.0099Z" fill="#4590C8"/>
<path d="M6.38518 3.98991C9.38561 2.14898 13.1761 2.14795 16.1783 3.98991C16.5693 4.22981 17.0717 3.95133 17.0717 3.49266V0.878062C17.0717 0.393141 16.6786 0 16.1936 0H6.36976C5.88484 0 5.4917 0.393141 5.4917 0.878062V3.49266C5.49175 3.95138 5.9942 4.22981 6.38518 3.98991Z" fill="#4590C8"/>
</g>
<defs>
<clipPath id="clip0">
<rect width="24" height="24" fill="white"/>
</clipPath>
</defs>
</svg>
