<svg width="196" height="196" viewBox="0 0 196 196" fill="none" xmlns="http://www.w3.org/2000/svg">
<path d="M33.1379 94.882L73.7869 54.245L70.0469 50.501L23.0249 97.527L70.0469 144.55L73.7869 140.813L33.1379 100.165H166.837V94.882H33.1379Z" fill="white"/>
<path d="M97.5289 0C43.7529 0 0.00488281 43.751 0.00488281 97.531C0.00488281 151.3 43.7529 195.055 97.5289 195.055C151.305 195.055 195.049 151.3 195.049 97.531C195.049 43.751 151.305 0 97.5289 0ZM97.5289 190.441C46.2979 190.441 4.61488 148.762 4.61488 97.53C4.61488 46.288 46.2979 4.605 97.5289 4.605C148.757 4.605 190.443 46.288 190.443 97.526C190.443 148.759 148.757 190.441 97.5289 190.441Z" fill="white"/>
</svg>
