<svg width="196" height="196" viewBox="0 0 196 196" fill="none" xmlns="http://www.w3.org/2000/svg">
<path d="M161.917 94.882L121.268 54.245L125.008 50.501L172.03 97.527L125.008 144.55L121.268 140.813L161.917 100.165H28.2183V94.882H161.917Z" fill="white"/>
<path d="M97.5263 0C151.302 0 195.05 43.751 195.05 97.531C195.05 151.3 151.302 195.055 97.5263 195.055C43.7503 195.055 0.00630188 151.3 0.00630188 97.531C0.00630188 43.751 43.7503 0 97.5263 0ZM97.5263 190.441C148.757 190.441 190.44 148.762 190.44 97.53C190.44 46.288 148.757 4.605 97.5263 4.605C46.2983 4.605 4.6123 46.288 4.6123 97.526C4.6123 148.759 46.2983 190.441 97.5263 190.441Z" fill="white"/>
</svg>
