<svg width="139" height="139" viewBox="0 0 139 139" fill="none" xmlns="http://www.w3.org/2000/svg">
<path d="M122.224 3.59473C113.791 3.59473 106.81 9.85692 105.64 17.974H95.8621V27.5602C95.8621 28.8831 94.7908 29.9568 93.4655 29.9568C92.1402 29.9568 91.069 28.8831 91.069 27.5602V17.974H86.2759V32.3533C86.2759 33.6762 85.2046 34.7499 83.8793 34.7499C82.554 34.7499 81.4828 33.6762 81.4828 32.3533V17.974H33.36C32.1905 9.85692 25.2093 3.59473 16.7759 3.59473C7.52757 3.59473 0 11.1199 0 20.3706V118.629C0 127.88 7.52757 135.405 16.7759 135.405H40.7414V121.026C40.7414 119.703 41.8126 118.629 43.1379 118.629C44.4632 118.629 45.5345 119.703 45.5345 121.026V135.405H50.3276V128.215C50.3276 126.893 51.3988 125.819 52.7241 125.819C54.0494 125.819 55.1207 126.893 55.1207 128.215V135.405H122.224C131.472 135.405 139 127.88 139 118.629V20.3706C139 11.1199 131.472 3.59473 122.224 3.59473ZM28.7586 106.898C25.7126 103.787 21.4659 101.853 16.7759 101.853C12.0858 101.853 7.83912 103.787 4.7931 106.898V20.3706C4.7931 13.7633 10.1686 8.38783 16.7759 8.38783C23.3832 8.38783 28.7586 13.7633 28.7586 20.3706V106.898ZM44.8323 60.4098L41.4436 57.021L46.9389 51.5258L41.4436 46.0305L44.8323 42.6417L50.3276 48.137L55.8229 42.6417L59.2116 46.0305L53.7163 51.5258L59.2116 57.021L55.8229 60.4098L50.3276 54.9145L44.8323 60.4098ZM51.2335 71.803C50.2125 71.803 49.2707 71.1487 48.9472 70.1254C48.2737 67.9829 47.931 65.7565 47.931 63.5085C47.931 62.1856 49.0023 61.112 50.3276 61.112C51.6529 61.112 52.7241 62.1856 52.7241 63.5085C52.7241 65.2676 52.9902 67.0099 53.5198 68.6875C53.9176 69.9504 53.2154 71.2949 51.9524 71.6927C51.7128 71.767 51.4707 71.803 51.2335 71.803ZM63.0629 82.7001C62.6123 83.4502 61.819 83.8648 61.0066 83.8648C60.5872 83.8648 60.1606 83.7546 59.7748 83.5221C57.2201 81.9883 54.9937 80.0807 53.1627 77.8519C52.3215 76.8286 52.4701 75.3187 53.4934 74.4775C54.5239 73.6363 56.0314 73.7873 56.8654 74.8083C58.3488 76.6129 60.1558 78.161 62.2408 79.412C63.3768 80.0927 63.7459 81.5665 63.0629 82.7001ZM82.4773 86.7023C82.1538 87.7257 81.2119 88.3799 80.191 88.3799C79.9514 88.3799 79.7117 88.344 79.472 88.2697C77.7945 87.7424 76.0522 87.474 74.2931 87.474C72.1003 87.474 69.917 87.2272 67.8008 86.7431C66.5115 86.4483 65.7063 85.1614 66.001 83.872C66.2982 82.5803 67.578 81.7654 68.8721 82.0722C70.636 82.4772 72.4573 82.6809 74.2931 82.6809C76.5411 82.6809 78.7675 83.0236 80.91 83.6971C82.173 84.0949 82.8752 85.4394 82.4773 86.7023ZM90.199 96.9907C88.9504 94.9081 87.3998 93.0987 85.5952 91.6153C84.5719 90.7741 84.4257 89.2643 85.2645 88.2409C86.1057 87.2224 87.6131 87.0714 88.6365 87.9126C90.87 89.7484 92.7777 91.9724 94.3067 94.5247C94.9873 95.6607 94.6206 97.1321 93.4847 97.8128C93.0988 98.0452 92.6723 98.1555 92.2529 98.1555C91.4404 98.1555 90.6472 97.7409 90.199 96.9907ZM95.8621 111.44C94.5368 111.44 93.4655 110.366 93.4655 109.043C93.4655 107.202 93.2618 105.381 92.8568 103.624C92.5596 102.333 93.3649 101.048 94.6566 100.751C95.9459 100.459 97.2305 101.259 97.5277 102.548C98.0118 104.657 98.2586 106.843 98.2586 109.043C98.2586 110.366 97.1874 111.44 95.8621 111.44ZM134.207 106.898C131.161 103.787 126.914 101.853 122.224 101.853C117.534 101.853 113.287 103.787 110.241 106.898V20.3706C110.241 13.7633 115.617 8.38783 122.224 8.38783C128.831 8.38783 134.207 13.7633 134.207 20.3706V106.898Z" fill="#A4A4A4"/>
</svg>
